<?xml version="1.0" encoding="UTF-8"?>
<svg version="1.1" xmlns="http://www.w3.org/2000/svg" xmlns:xlink="http://www.w3.org/1999/xlink" x="0px" y="0px" viewBox="0 0 72.567 80.267" width="2.56cm" height="2.83cm" xml:space="preserve">
<g id="silkscreen">

	<g class="PCB">
		<path class="board-outline" d="M71.579,0.5c0.322,0,0.499,0.177,0.499,0.499v77.255c0,0.826-0.672,1.499-1.499,1.499H7.617c-0.826,0-1.499-0.672-1.499-1.499v-17.19c0-0.406-0.221-0.769-0.591-0.954l-4.982-2.292c-0.021-0.011-0.023-0.04-0.023-0.053V0.999C0.521,0.677,0.698,0.5,1.02,0.5H71.579 M68.681,5.697c0.975,0,1.799-0.824,1.799-1.799s-0.824-1.799-1.799-1.799c-0.975,0-1.799,0.824-1.799,1.799C66.882,4.873,67.706,5.697,68.681,5.697 M3.919,5.697c0.975,0,1.799-0.824,1.799-1.799S4.894,2.098,3.919,2.098c-0.975,0-1.799,0.824-1.799,1.799S2.943,5.697,3.919,5.697 M68.681,12.893c0.975,0,1.799-0.824,1.799-1.799s-0.824-1.799-1.799-1.799c-0.975,0-1.799,0.824-1.799,1.799S67.706,12.893,68.681,12.893 M3.919,12.893c0.975,0,1.799-0.824,1.799-1.799S4.894,9.294,3.919,9.294c-0.975,0-1.799,0.824-1.799,1.799S2.943,12.893,3.919,12.893 M68.681,20.089c0.975,0,1.799-0.824,1.799-1.799s-0.824-1.799-1.799-1.799c-0.975,0-1.799,0.824-1.799,1.799S67.706,20.089,68.681,20.089 M3.919,20.089c0.975,0,1.799-0.824,1.799-1.799S4.894,16.49,3.919,16.49c-0.975,0-1.799,0.824-1.799,1.799S2.943,20.089,3.919,20.089 M68.681,27.284c0.975,0,1.799-0.824,1.799-1.799s-0.824-1.799-1.799-1.799c-0.975,0-1.799,0.824-1.799,1.799S67.706,27.284,68.681,27.284 M3.919,27.284c0.975,0,1.799-0.824,1.799-1.799s-0.824-1.799-1.799-1.799c-0.975,0-1.799,0.824-1.799,1.799S2.943,27.284,3.919,27.284 M68.681,34.48c0.975,0,1.799-0.824,1.799-1.799s-0.824-1.799-1.799-1.799c-0.975,0-1.799,0.824-1.799,1.799C66.882,33.656,67.706,34.48,68.681,34.48 M3.919,34.48c0.975,0,1.799-0.824,1.799-1.799s-0.824-1.799-1.799-1.799c-0.975,0-1.799,0.824-1.799,1.799S2.943,34.48,3.919,34.48 M68.681,41.676c0.975,0,1.799-0.824,1.799-1.799s-0.824-1.799-1.799-1.799c-0.975,0-1.799,0.824-1.799,1.799C66.882,40.852,67.706,41.676,68.681,41.676 M3.919,41.676c0.975,0,1.799-0.824,1.799-1.799s-0.824-1.799-1.799-1.799c-0.975,0-1.799,0.824-1.799,1.799S2.943,41.676,3.919,41.676 M68.681,48.872c0.975,0,1.799-0.824,1.799-1.799c0-0.975-0.824-1.799-1.799-1.799c-0.975,0-1.799,0.824-1.799,1.799C66.882,48.048,67.706,48.872,68.681,48.872 M3.919,48.872c0.975,0,1.799-0.824,1.799-1.799c0-0.975-0.824-1.799-1.799-1.799c-0.975,0-1.799,0.824-1.799,1.799C2.119,48.048,2.943,48.872,3.919,48.872 M68.681,56.068c0.975,0,1.799-0.824,1.799-1.799s-0.824-1.799-1.799-1.799c-0.975,0-1.799,0.824-1.799,1.799S67.706,56.068,68.681,56.068 M3.919,56.068c0.975,0,1.799-0.824,1.799-1.799s-0.824-1.799-1.799-1.799c-0.975,0-1.799,0.824-1.799,1.799S2.943,56.068,3.919,56.068 M71.579,0H1.02c-0.6,0-0.999,0.4-0.999,0.999v56.767c0,0.2,0.1,0.4,0.3,0.5l4.997,2.299c0.2,0.1,0.3,0.3,0.3,0.5v17.19c0,1.099,0.899,1.999,1.999,1.999H70.58c1.099,0,1.999-0.899,1.999-1.999V0.999C72.579,0.4,72.179,0,71.579,0L71.579,0z M68.681,5.197c-0.7,0-1.299-0.6-1.299-1.299c0-0.7,0.6-1.299,1.299-1.299c0.7,0,1.299,0.6,1.299,1.299C69.98,4.597,69.381,5.197,68.681,5.197L68.681,5.197z M3.919,5.197c-0.7,0-1.299-0.6-1.299-1.299c0-0.7,0.6-1.299,1.299-1.299c0.7,0,1.299,0.6,1.299,1.299C5.218,4.597,4.618,5.197,3.919,5.197L3.919,5.197z M68.681,12.393c-0.7,0-1.299-0.6-1.299-1.299c0-0.7,0.6-1.299,1.299-1.299c0.7,0,1.299,0.6,1.299,1.299C69.98,11.793,69.381,12.393,68.681,12.393L68.681,12.393z M3.919,12.393c-0.7,0-1.299-0.6-1.299-1.299c0-0.7,0.6-1.299,1.299-1.299c0.7,0,1.299,0.6,1.299,1.299C5.218,11.793,4.618,12.393,3.919,12.393L3.919,12.393z M68.681,19.589c-0.7,0-1.299-0.6-1.299-1.299s0.6-1.299,1.299-1.299c0.7,0,1.299,0.6,1.299,1.299S69.381,19.589,68.681,19.589L68.681,19.589z M3.919,19.589c-0.7,0-1.299-0.6-1.299-1.299s0.6-1.299,1.299-1.299c0.7,0,1.299,0.6,1.299,1.299S4.618,19.589,3.919,19.589L3.919,19.589z M68.681,26.784c-0.7,0-1.299-0.6-1.299-1.299c0-0.7,0.6-1.299,1.299-1.299c0.7,0,1.299,0.6,1.299,1.299C69.98,26.185,69.381,26.784,68.681,26.784L68.681,26.784z M3.919,26.784c-0.7,0-1.299-0.6-1.299-1.299c0-0.7,0.6-1.299,1.299-1.299c0.7,0,1.299,0.6,1.299,1.299C5.218,26.185,4.618,26.784,3.919,26.784L3.919,26.784z M68.681,33.98c-0.7,0-1.299-0.6-1.299-1.299c0-0.7,0.6-1.299,1.299-1.299c0.7,0,1.299,0.6,1.299,1.299C69.98,33.381,69.381,33.98,68.681,33.98L68.681,33.98z M3.919,33.98c-0.7,0-1.299-0.6-1.299-1.299c0-0.7,0.6-1.299,1.299-1.299c0.7,0,1.299,0.6,1.299,1.299C5.218,33.381,4.618,33.98,3.919,33.98L3.919,33.98z M68.681,41.176c-0.7,0-1.299-0.6-1.299-1.299c0-0.7,0.6-1.299,1.299-1.299c0.7,0,1.299,0.6,1.299,1.299C69.98,40.576,69.381,41.176,68.681,41.176L68.681,41.176z M3.919,41.176c-0.7,0-1.299-0.6-1.299-1.299c0-0.7,0.6-1.299,1.299-1.299c0.7,0,1.299,0.6,1.299,1.299C5.218,40.576,4.618,41.176,3.919,41.176L3.919,41.176z M68.681,48.372c-0.7,0-1.299-0.6-1.299-1.299c0-0.7,0.6-1.299,1.299-1.299c0.7,0,1.299,0.6,1.299,1.299C69.98,47.772,69.381,48.372,68.681,48.372L68.681,48.372z M3.919,48.372c-0.7,0-1.299-0.6-1.299-1.299c0-0.7,0.6-1.299,1.299-1.299c0.7,0,1.299,0.6,1.299,1.299C5.218,47.772,4.618,48.372,3.919,48.372L3.919,48.372z M68.681,55.568c-0.7,0-1.299-0.6-1.299-1.299c0-0.7,0.6-1.299,1.299-1.299c0.7,0,1.299,0.6,1.299,1.299C69.98,54.968,69.381,55.568,68.681,55.568L68.681,55.568z M3.919,55.568c-0.7,0-1.299-0.6-1.299-1.299c0-0.7,0.6-1.299,1.299-1.299c0.7,0,1.299,0.6,1.299,1.299C5.218,54.968,4.618,55.568,3.919,55.568L3.919,55.568z"/>
	</g>

	<g font-family="'Droid Sans'" font-size="4" fill="#000000" stroke="none" stroke-width="0" stroke-linecap="round">
		<text x="36.2835" y="27" text-anchor="middle">WeMos D1 mini</text>
		<text x="36.2835" y="34" text-anchor="middle">1 Button Shield</text>
	</g>

	<g transform="translate(0.2835 0)">
		<g class="labels" fill="none" stroke="#000000" stroke-width="0.4" stroke-linecap="round" stroke-linejoin="round" stroke-miterlimit="10">
			<g class="left-labels" transform="translate(8.5 0.3)">
				<g class="RST">
					<path class="left" d="M0,4.6V2.4 M0,2.4h1.165 M1.165,2.4l0.324,0.324 M1.488,2.724V3.5 M1.488,3.5L1.165,3.888 M1.165,3.888H0 M0.776,3.888L1.488,4.6 M3.818,2.724L3.429,2.4 M3.429,2.4H2.653 M2.653,2.4L2.265,2.724 M2.265,2.724v0.388 M2.265,3.112L2.653,3.5 M2.653,3.5h0.776 M3.429,3.5l0.388,0.388 M3.818,3.888v0.324 M3.818,4.212L3.429,4.6 M3.429,4.6H2.653 M2.653,4.6L2.265,4.212 M5.306,4.6V2.4 M4.594,2.4h1.488"/>
				</g>
				<g class="A0" transform="translate(0 7.2)">
					<path class="left" d="M0,4.6V3.112 M0,3.112L0.776,2.4 M0.776,2.4l0.776,0.712 M1.553,3.112V4.6 M0,3.5h1.553 M2.329,4.212V2.724 M2.329,2.724L2.718,2.4 M2.718,2.4h0.712 M3.429,2.4l0.388,0.324 M3.818,2.724v1.488 M3.818,4.212L3.429,4.6 M3.429,4.6H2.718 M2.718,4.6L2.329,4.212 M2.329,4.212l1.488-1.488"/>
				</g>
				<g class="D0" transform="translate(0 14.4)">
					<path class="left" d="M0,2.4v2.2 M0,4.6h1.165 M1.165,4.6l0.388-0.388 M1.553,4.212V2.724 M1.553,2.724L1.165,2.4 M1.165,2.4H0 M2.329,4.212V2.724 M2.329,2.724L2.718,2.4 M2.718,2.4h0.712 M3.429,2.4l0.388,0.324 M3.818,2.724v1.488 M3.818,4.212L3.429,4.6 M3.429,4.6H2.718 M2.718,4.6L2.329,4.212 M2.329,4.212l1.488-1.488"/>
				</g>
				<g class="D5" transform="translate(0 21.6)">
					<path class="left" d="M0,2.4v2.2 M0,4.6h1.165 M1.165,4.6l0.388-0.388 M1.553,4.212V2.724 M1.553,2.724L1.165,2.4 M1.165,2.4H0 M3.818,2.4H2.329 M2.329,2.4v1.1 M2.329,3.5l0.712-0.388 M3.041,3.112h0.388 M3.429,3.112L3.818,3.5 M3.818,3.5v0.712 M3.818,4.212L3.429,4.6 M3.429,4.6H2.653 M2.653,4.6L2.329,4.212"/>
				</g>
				<g class="D6" transform="translate(0 28.8)">
					<path class="left" d="M0,2.4v2.2 M0,4.6h1.165 M1.165,4.6l0.388-0.388 M1.553,4.212V2.724 M1.553,2.724L1.165,2.4 M1.165,2.4H0 M3.818,2.4L3.041,2.724 M3.041,2.724L2.329,3.5 M2.329,3.5v0.712 M2.653,4.6L2.329,4.212 M2.653,4.6h0.776 M3.429,4.6l0.388-0.388 M3.818,4.212V3.888 M3.818,3.888L3.429,3.5 M3.429,3.5h-1.1"/>
				</g>
				<g class="D7" transform="translate(0 36)">
					<path class="left" d="M0,2.4v2.2 M0,4.6h1.165 M1.165,4.6l0.388-0.388 M1.553,4.212V2.724 M1.553,2.724L1.165,2.4 M1.165,2.4H0 M2.329,2.4h1.488 M3.818,2.4v0.324 M3.818,2.724L2.329,4.212 M2.329,4.212V4.6"/>
				</g>
				<g class="D8" transform="translate(0 43.2)">
					<path class="left" d="M0,2.4v2.2 M0,4.6h1.165 M1.165,4.6l0.324-0.388 M1.488,4.212V2.724 M1.488,2.724L1.165,2.4 M1.165,2.4H0 M2.329,2.724L2.653,2.4 M2.653,2.4h0.776 M3.429,2.4l0.388,0.324 M3.818,2.724v0.388 M3.818,3.112L3.429,3.5 M3.429,3.5l0.388,0.388 M3.818,3.888v0.324 M3.818,4.212L3.429,4.6 M3.429,4.6H2.653 M2.653,4.6L2.329,4.212 M2.329,4.212V3.888 M2.329,3.888L2.653,3.5 M2.653,3.5L2.329,3.112 M2.329,3.112V2.724 M2.653,3.5h0.776"/>
				</g>
				<g class="3V3" transform="translate(0 50.4)">
					<path class="left" d="M0,2.724L0.388,2.4 M0.388,2.4h0.776 M1.165,2.4l0.324,0.324 M1.488,2.724v0.388 M1.488,3.112L1.165,3.5 M1.165,3.5H0.776 M1.165,3.5l0.324,0.388 M1.488,3.888v0.324 M1.488,4.212L1.165,4.6 M1.165,4.6H0.388 M0.388,4.6L0,4.212 M2.329,2.4v1.488 M2.329,3.888L3.041,4.6 M3.041,4.6l0.776-0.712 M3.818,3.888V2.4 M4.594,2.724L4.982,2.4 M4.982,2.4h0.712 M5.694,2.4l0.388,0.324 M6.082,2.724v0.388 M6.082,3.112L5.694,3.5 M5.694,3.5H5.371 M5.694,3.5l0.388,0.388 M6.082,3.888v0.324 M6.082,4.212L5.694,4.6 M5.694,4.6H4.982 M4.594,4.212L4.982,4.6"/>
				</g>
			</g>
			<g class="right-labels" transform="translate(56.7 0.3)">
				<g class="TX">
					<path class="right" d="M3.959,4.6V2.4 M3.247,2.4h1.488 M7,4.6L5.512,2.4 M7,2.4L5.512,4.6"/>
				</g>
				<g class="RX" transform="translate(0 7.2)">
					<path class="right" d="M3.247,4.6V2.4 M3.247,2.4h1.1 M4.347,2.4l0.388,0.324 M4.735,2.724V3.5 M4.735,3.5L4.347,3.888 M4.347,3.888h-1.1 M3.959,3.888L4.735,4.6 M7,4.6L5.512,2.4 M7,2.4L5.512,4.6"/>
				</g>
				<g class="D1" transform="translate(0 14.4)">
					<path class="right" d="M3.247,2.4v2.2 M3.247,4.6h1.1 M4.347,4.6l0.388-0.388 M4.735,4.212V2.724 M4.735,2.724L4.347,2.4 M4.347,2.4h-1.1 M5.512,3.112L6.224,2.4 M6.224,2.4v2.2 M5.512,4.6H7"/>
				</g>
				<g class="D2" transform="translate(0 21.6)">
					<path class="right" d="M3.247,2.4v2.2 M3.247,4.6h1.1 M4.347,4.6l0.388-0.388 M4.735,4.212V2.724 M4.735,2.724L4.347,2.4 M4.347,2.4h-1.1 M7,4.6H5.512 M5.512,4.6L7,3.112 M7,3.112V2.724 M7,2.724L6.612,2.4 M6.612,2.4H5.9 M5.9,2.4L5.512,2.724"/>
				</g>
				<g class="D3" transform="translate(0 28.8)">
					<path class="right" d="M3.182,2.4v2.2 M3.182,4.6h1.165 M4.347,4.6l0.388-0.388 M4.735,4.212V2.724 M4.735,2.724L4.347,2.4 M4.347,2.4H3.182 M5.512,2.724L5.9,2.4 M5.9,2.4h0.712 M6.612,2.4L7,2.724 M7,2.724v0.388 M7,3.112L6.612,3.5 M6.612,3.5H6.224 M6.612,3.5L7,3.888 M7,3.888v0.324 M7,4.212L6.612,4.6 M6.612,4.6H5.9 M5.9,4.6L5.512,4.212"/>
				</g>
				<g class="D4" transform="translate(0 36)">
					<path class="right" d="M3.182,2.4v2.2 M3.182,4.6h1.165 M4.347,4.6l0.388-0.388 M4.735,4.212V2.724 M4.735,2.724L4.347,2.4 M4.347,2.4H3.182 M6.612,4.6V2.4 M6.612,2.4l-1.1,1.1 M5.512,3.5H7"/>
				</g>
				<g class="GND" transform="translate(0 43.2)">
					<path class="right" d="M2.018,2.4l0.388,0.324 M2.018,2.4H1.306 M0.918,2.724L1.306,2.4 M0.918,2.724v1.488 M1.306,4.6L0.918,4.212 M1.306,4.6h0.712 M2.018,4.6l0.388-0.388 M2.406,4.212V3.5 M2.406,3.5H1.694 M3.182,4.6V2.4 M3.182,2.4l1.553,2.2 M4.735,4.6V2.4 M5.512,2.4v2.2 M5.512,4.6h1.1 M6.612,4.6L7,4.212 M7,4.212V2.724 M7,2.724L6.612,2.4 M6.612,2.4h-1.1"/>
				</g>
				<g class="5V" transform="translate(0 50.4)">
					<path class="right" d="M4.735,2.4H3.182 M3.182,2.4v1.1 M3.182,3.5l0.776-0.388 M3.959,3.112h0.388 M4.347,3.112L4.735,3.5 M4.735,3.5v0.712 M4.735,4.212L4.347,4.6 M4.347,4.6H3.571 M3.571,4.6L3.182,4.212 M5.512,2.4v1.488 M5.512,3.888L6.224,4.6 M6.224,4.6L7,3.888 M7,3.888V2.4"/>
				</g>
			</g>
		</g>

		<g class="bottom-right-dot" stroke-width="0" transform="translate(67.8, 76)">
			<circle cx="0.8" cy="0.8" r="1.6" fill="#000000"/>
		</g>
	</g>
</g>

<g id="copper1">
	<g id="copper0">
		<g transform="translate(0.2835 0)">
			<g class="pads" fill="none" stroke="#F7BD13" stroke-width="1.5">
				<g class="pads-left" transform="translate(0 0.322)">
					<circle id="connector0pad" class="pad-rst" cx="3.6" cy="3.6"  r="2.05"/>
					<circle id="connector1pad" class="pad-a0"  cx="3.6" cy="10.8" r="2.05"/>
					<circle id="connector2pad" class="pad-d0"  cx="3.6" cy="18"   r="2.05"/>
					<circle id="connector3pad" class="pad-d5"  cx="3.6" cy="25.2" r="2.05"/>
					<circle id="connector4pad" class="pad-d6"  cx="3.6" cy="32.4" r="2.05"/>
					<circle id="connector5pad" class="pad-d7"  cx="3.6" cy="39.6" r="2.05"/>
					<circle id="connector6pad" class="pad-d8"  cx="3.6" cy="46.8" r="2.05"/>
					<circle id="connector7pad" class="pad-3v3" cx="3.6" cy="54"   r="2.05"/>
				</g>
				<g class="pads-right" transform="translate(64.8 0.322)">
					<circle id="connector8pad" class="pad-5v"  cx="3.6" cy="54"   r="2.05"/>
					<circle id="connector9pad" class="pad-g"   cx="3.6" cy="46.8" r="2.05"/>
					<circle id="connector10pad" class="pad-d4" cx="3.6" cy="39.6" r="2.05"/>
					<circle id="connector11pad" class="pad-d3" cx="3.6" cy="32.4" r="2.05"/>
					<circle id="connector12pad" class="pad-d2" cx="3.6" cy="25.2" r="2.05"/>
					<circle id="connector13pad" class="pad-d1" cx="3.6" cy="18"   r="2.05"/>
					<circle id="connector14pad" class="pad-rx" cx="3.6" cy="10.8" r="2.05"/>
					<circle id="connector15pad" class="pad-tx" cx="3.6" cy="3.6"  r="2.05"/>
				</g>
			</g>
		</g>
	</g>
</g>
</svg>
