<?xml version="1.0" encoding="UTF-8"?>
<svg version="1.1" xmlns="http://www.w3.org/2000/svg" xmlns:xlink="http://www.w3.org/1999/xlink" x="0px" y="0px" viewBox="0 0 72.567 80.267" width="2.56cm" height="2.83cm" xml:space="preserve">
<g id="breadboard">
	<g id="icon">

		<g class="PCB">
			<path fill="#0D4C75" d="M0,57.8c0,0.2,0.1,0.4,0.3,0.5l5,2.3c0.2,0.1,0.3,0.3,0.3,0.5v17.2c0,1.1,0.9,2,2,2h63c1.1,0,2-0.9,2-2V1c0-0.6-0.4-1-1-1H1C0.4,0,0,0.4,0,1V57.8z M68.7,2.6c0.7,0,1.3,0.6,1.3,1.3s-0.6,1.3-1.3,1.3s-1.3-0.6-1.3-1.3C67.4,3.2,68,2.6,68.7,2.6z M68.7,9.8c0.7,0,1.3,0.6,1.3,1.3s-0.6,1.3-1.3,1.3s-1.3-0.6-1.3-1.3S68,9.8,68.7,9.8z M68.7,17c0.7,0,1.3,0.6,1.3,1.3s-0.6,1.3-1.3,1.3s-1.3-0.6-1.3-1.3S68,17,68.7,17z M68.7,24.2c0.7,0,1.3,0.6,1.3,1.3s-0.6,1.3-1.3,1.3s-1.3-0.6-1.3-1.3S68,24.2,68.7,24.2z M68.7,31.4c0.7,0,1.3,0.6,1.3,1.3c0,0.7-0.6,1.3-1.3,1.3s-1.3-0.6-1.3-1.3C67.4,32,68,31.4,68.7,31.4z M68.7,38.6c0.7,0,1.3,0.6,1.3,1.3s-0.6,1.3-1.3,1.3s-1.3-0.6-1.3-1.3C67.4,39.2,68,38.6,68.7,38.6z M68.7,45.8c0.7,0,1.3,0.6,1.3,1.3s-0.6,1.3-1.3,1.3s-1.3-0.6-1.3-1.3S68,45.8,68.7,45.8z M68.7,53c0.7,0,1.3,0.6,1.3,1.3s-0.6,1.3-1.3,1.3s-1.3-0.6-1.3-1.3S68,53,68.7,53z M3.9,2.6c0.7,0,1.3,0.6,1.3,1.3S4.6,5.2,3.9,5.2S2.6,4.6,2.6,3.9S3.2,2.6,3.9,2.6z M3.9,9.8c0.7,0,1.3,0.6,1.3,1.3s-0.6,1.3-1.3,1.3s-1.3-0.6-1.3-1.3S3.2,9.8,3.9,9.8z M3.9,17c0.7,0,1.3,0.6,1.3,1.3s-0.6,1.3-1.3,1.3S2.6,19,2.6,18.3S3.2,17,3.9,17z M3.9,24.2c0.7,0,1.3,0.6,1.3,1.3s-0.6,1.3-1.3,1.3s-1.3-0.6-1.3-1.3S3.2,24.2,3.9,24.2z M3.9,31.4c0.7,0,1.3,0.6,1.3,1.3c0,0.7-0.6,1.3-1.3,1.3s-1.3-0.6-1.3-1.3S3.2,31.4,3.9,31.4z M3.9,38.6c0.7,0,1.3,0.6,1.3,1.3s-0.6,1.3-1.3,1.3s-1.3-0.6-1.3-1.3S3.2,38.6,3.9,38.6z M3.9,45.8c0.7,0,1.3,0.6,1.3,1.3s-0.6,1.3-1.3,1.3s-1.3-0.6-1.3-1.3S3.2,45.8,3.9,45.8z M3.9,53c0.7,0,1.3,0.6,1.3,1.3s-0.6,1.3-1.3,1.3S2.6,55,2.6,54.3S3.2,53,3.9,53z"/>
		</g>

		<g transform="translate(0.2835 0)">

			<g class="used-pin-star" fill="#EEEEEE" stroke="#EEEEEE" stroke-width="0.4" stroke-linecap="round">
				<g class="D3" transform="translate(56.8 31.6)">
					<path d="M0,2l2-2 M0,0l2,2"/>
					<g transform="rotate(45 0.7 0.7)">
						<rect x="0.3" y="0" width="1.4" height="1.4"/>
					</g>
				</g>
			</g>

			<g class="labels" fill="none" stroke="#EEEEEE" stroke-width="0.4" stroke-linecap="round" stroke-linejoin="round" stroke-miterlimit="10">
				<g class="left-labels" transform="translate(8.5 0.3)">
					<g class="RST">
						<path class="left" d="M0,4.6V2.4 M0,2.4h1.165 M1.165,2.4l0.324,0.324 M1.488,2.724V3.5 M1.488,3.5L1.165,3.888 M1.165,3.888H0 M0.776,3.888L1.488,4.6 M3.818,2.724L3.429,2.4 M3.429,2.4H2.653 M2.653,2.4L2.265,2.724 M2.265,2.724v0.388 M2.265,3.112L2.653,3.5 M2.653,3.5h0.776 M3.429,3.5l0.388,0.388 M3.818,3.888v0.324 M3.818,4.212L3.429,4.6 M3.429,4.6H2.653 M2.653,4.6L2.265,4.212 M5.306,4.6V2.4 M4.594,2.4h1.488"/>
					</g>
					<g class="A0" transform="translate(0 7.2)">
						<path class="left" d="M0,4.6V3.112 M0,3.112L0.776,2.4 M0.776,2.4l0.776,0.712 M1.553,3.112V4.6 M0,3.5h1.553 M2.329,4.212V2.724 M2.329,2.724L2.718,2.4 M2.718,2.4h0.712 M3.429,2.4l0.388,0.324 M3.818,2.724v1.488 M3.818,4.212L3.429,4.6 M3.429,4.6H2.718 M2.718,4.6L2.329,4.212 M2.329,4.212l1.488-1.488"/>
					</g>
					<g class="D0" transform="translate(0 14.4)">
						<path class="left" d="M0,2.4v2.2 M0,4.6h1.165 M1.165,4.6l0.388-0.388 M1.553,4.212V2.724 M1.553,2.724L1.165,2.4 M1.165,2.4H0 M2.329,4.212V2.724 M2.329,2.724L2.718,2.4 M2.718,2.4h0.712 M3.429,2.4l0.388,0.324 M3.818,2.724v1.488 M3.818,4.212L3.429,4.6 M3.429,4.6H2.718 M2.718,4.6L2.329,4.212 M2.329,4.212l1.488-1.488"/>
					</g>
					<g class="D5" transform="translate(0 21.6)">
						<path class="left" d="M0,2.4v2.2 M0,4.6h1.165 M1.165,4.6l0.388-0.388 M1.553,4.212V2.724 M1.553,2.724L1.165,2.4 M1.165,2.4H0 M3.818,2.4H2.329 M2.329,2.4v1.1 M2.329,3.5l0.712-0.388 M3.041,3.112h0.388 M3.429,3.112L3.818,3.5 M3.818,3.5v0.712 M3.818,4.212L3.429,4.6 M3.429,4.6H2.653 M2.653,4.6L2.329,4.212"/>
					</g>
					<g class="D6" transform="translate(0 28.8)">
						<path class="left" d="M0,2.4v2.2 M0,4.6h1.165 M1.165,4.6l0.388-0.388 M1.553,4.212V2.724 M1.553,2.724L1.165,2.4 M1.165,2.4H0 M3.818,2.4L3.041,2.724 M3.041,2.724L2.329,3.5 M2.329,3.5v0.712 M2.653,4.6L2.329,4.212 M2.653,4.6h0.776 M3.429,4.6l0.388-0.388 M3.818,4.212V3.888 M3.818,3.888L3.429,3.5 M3.429,3.5h-1.1"/>
					</g>
					<g class="D7" transform="translate(0 36)">
						<path class="left" d="M0,2.4v2.2 M0,4.6h1.165 M1.165,4.6l0.388-0.388 M1.553,4.212V2.724 M1.553,2.724L1.165,2.4 M1.165,2.4H0 M2.329,2.4h1.488 M3.818,2.4v0.324 M3.818,2.724L2.329,4.212 M2.329,4.212V4.6"/>
					</g>
					<g class="D8" transform="translate(0 43.2)">
						<path class="left" d="M0,2.4v2.2 M0,4.6h1.165 M1.165,4.6l0.324-0.388 M1.488,4.212V2.724 M1.488,2.724L1.165,2.4 M1.165,2.4H0 M2.329,2.724L2.653,2.4 M2.653,2.4h0.776 M3.429,2.4l0.388,0.324 M3.818,2.724v0.388 M3.818,3.112L3.429,3.5 M3.429,3.5l0.388,0.388 M3.818,3.888v0.324 M3.818,4.212L3.429,4.6 M3.429,4.6H2.653 M2.653,4.6L2.329,4.212 M2.329,4.212V3.888 M2.329,3.888L2.653,3.5 M2.653,3.5L2.329,3.112 M2.329,3.112V2.724 M2.653,3.5h0.776"/>
					</g>
					<g class="3V3" transform="translate(0 50.4)">
						<path class="left" d="M0,2.724L0.388,2.4 M0.388,2.4h0.776 M1.165,2.4l0.324,0.324 M1.488,2.724v0.388 M1.488,3.112L1.165,3.5 M1.165,3.5H0.776 M1.165,3.5l0.324,0.388 M1.488,3.888v0.324 M1.488,4.212L1.165,4.6 M1.165,4.6H0.388 M0.388,4.6L0,4.212 M2.329,2.4v1.488 M2.329,3.888L3.041,4.6 M3.041,4.6l0.776-0.712 M3.818,3.888V2.4 M4.594,2.724L4.982,2.4 M4.982,2.4h0.712 M5.694,2.4l0.388,0.324 M6.082,2.724v0.388 M6.082,3.112L5.694,3.5 M5.694,3.5H5.371 M5.694,3.5l0.388,0.388 M6.082,3.888v0.324 M6.082,4.212L5.694,4.6 M5.694,4.6H4.982 M4.594,4.212L4.982,4.6"/>
					</g>
				</g>
				<g class="right-labels" transform="translate(56.7 0.3)">
					<g class="TX">
						<path class="right" d="M3.959,4.6V2.4 M3.247,2.4h1.488 M7,4.6L5.512,2.4 M7,2.4L5.512,4.6"/>
					</g>
					<g class="RX" transform="translate(0 7.2)">
						<path class="right" d="M3.247,4.6V2.4 M3.247,2.4h1.1 M4.347,2.4l0.388,0.324 M4.735,2.724V3.5 M4.735,3.5L4.347,3.888 M4.347,3.888h-1.1 M3.959,3.888L4.735,4.6 M7,4.6L5.512,2.4 M7,2.4L5.512,4.6"/>
					</g>
					<g class="D1" transform="translate(0 14.4)">
						<path class="right" d="M3.247,2.4v2.2 M3.247,4.6h1.1 M4.347,4.6l0.388-0.388 M4.735,4.212V2.724 M4.735,2.724L4.347,2.4 M4.347,2.4h-1.1 M5.512,3.112L6.224,2.4 M6.224,2.4v2.2 M5.512,4.6H7"/>
					</g>
					<g class="D2" transform="translate(0 21.6)">
						<path class="right" d="M3.247,2.4v2.2 M3.247,4.6h1.1 M4.347,4.6l0.388-0.388 M4.735,4.212V2.724 M4.735,2.724L4.347,2.4 M4.347,2.4h-1.1 M7,4.6H5.512 M5.512,4.6L7,3.112 M7,3.112V2.724 M7,2.724L6.612,2.4 M6.612,2.4H5.9 M5.9,2.4L5.512,2.724"/>
					</g>
					<g class="D3" transform="translate(0 28.8)">
						<path class="right" d="M3.182,2.4v2.2 M3.182,4.6h1.165 M4.347,4.6l0.388-0.388 M4.735,4.212V2.724 M4.735,2.724L4.347,2.4 M4.347,2.4H3.182 M5.512,2.724L5.9,2.4 M5.9,2.4h0.712 M6.612,2.4L7,2.724 M7,2.724v0.388 M7,3.112L6.612,3.5 M6.612,3.5H6.224 M6.612,3.5L7,3.888 M7,3.888v0.324 M7,4.212L6.612,4.6 M6.612,4.6H5.9 M5.9,4.6L5.512,4.212"/>
					</g>
					<g class="D4" transform="translate(0 36)">
						<path class="right" d="M3.182,2.4v2.2 M3.182,4.6h1.165 M4.347,4.6l0.388-0.388 M4.735,4.212V2.724 M4.735,2.724L4.347,2.4 M4.347,2.4H3.182 M6.612,4.6V2.4 M6.612,2.4l-1.1,1.1 M5.512,3.5H7"/>
					</g>
					<g class="GND" transform="translate(0 43.2)">
						<path class="right" d="M2.018,2.4l0.388,0.324 M2.018,2.4H1.306 M0.918,2.724L1.306,2.4 M0.918,2.724v1.488 M1.306,4.6L0.918,4.212 M1.306,4.6h0.712 M2.018,4.6l0.388-0.388 M2.406,4.212V3.5 M2.406,3.5H1.694 M3.182,4.6V2.4 M3.182,2.4l1.553,2.2 M4.735,4.6V2.4 M5.512,2.4v2.2 M5.512,4.6h1.1 M6.612,4.6L7,4.212 M7,4.212V2.724 M7,2.724L6.612,2.4 M6.612,2.4h-1.1"/>
					</g>
					<g class="5V" transform="translate(0 50.4)">
						<path class="right" d="M4.735,2.4H3.182 M3.182,2.4v1.1 M3.182,3.5l0.776-0.388 M3.959,3.112h0.388 M4.347,3.112L4.735,3.5 M4.735,3.5v0.712 M4.735,4.212L4.347,4.6 M4.347,4.6H3.571 M3.571,4.6L3.182,4.212 M5.512,2.4v1.488 M5.512,3.888L6.224,4.6 M6.224,4.6L7,3.888 M7,3.888V2.4"/>
					</g>
				</g>
			</g>

			<g class="1-button-shield" transform="translate(19.5 3)">
				<g fill="none" stroke="#EEEEEE" stroke-width="0.5" stroke-linecap="round" stroke-linejoin="round" stroke-miterlimit="10">
					<path class="1-button" d="M0,1.5L1.5,0 M1.5,0v4.4 M0,4.4h2.9 M4.4,2.3h2.9 M9,4.4V0 M9,0h2.2 M11.2,0l0.8,0.8 M11.9,0.8v0.8 M11.9,1.5l-0.8,0.8 M11.2,2.3l0.8,0.6 M11.9,2.9v0.8 M11.9,3.7l-0.8,0.8 M11.2,4.4H9 M9,2.3h2.2 M13.4,0v3.7 M13.4,3.7l0.8,0.8 M14.2,4.4h1.4 M15.6,4.4l0.8-0.8 M16.3,3.7V0 M19.4,4.4V0 M17.9,0h2.9 M23.8,4.4V0 M22.4,0h2.9 M29,0h-1.4 M27.6,0l-0.8,0.8 M26.9,0.8v2.9 M27.6,4.4l-0.8-0.8 M27.6,4.4H29 M29,4.4l0.8-0.8 M29.8,3.7V0.8 M29.8,0.8L29,0 M31.3,4.4V0 M31.3,0l2.9,4.4 M34.2,4.4V0"/>
					<path class="shield" d="M19.1,7l-0.6-0.6 M18.5,6.4h-1.1 M17.4,6.4L16.8,7 M16.8,7v0.5 M17.4,8.1l-0.6-0.6 M17.4,8.1h1.1 M18.5,8.1l0.6,0.6 M19.1,8.7v0.6 M19.1,9.3l-0.6,0.6 M18.5,9.9h-1.1 M17.4,9.9l-0.6-0.6 M20.3,6.4v3.5 M20.3,8.1l0.6-0.6 M20.9,7.5h1.2 M22.1,7.5l0.5,0.6 M22.6,8.1v1.8 M23.8,7.5h0.5 M24.3,7.5v2.4 M23.8,9.9h1.1 M24.3,5.8v0.6 M27.9,9.9h-1.2 M26.7,9.9l-0.6-0.6 M26.1,9.3V8.1 M26.1,8.1l0.6-0.6 M26.7,7.5h1.2 M27.9,7.5l0.5,0.6 M28.4,8.1v0.6 M28.4,8.7h-2.3 M29.6,6.4h0.6 M30.2,6.4v3.5 M29.6,9.9h1.2 M34.2,6.4v3.5 M34.2,9.9h-1.7 M31.9,9.3l0.6,0.6 M31.9,9.3V8.1 M31.9,8.1l0.6-0.6 M32.5,7.5h1.7"/>
					<line x1="6.9" y1="11.6" x2="35.5" y2="11.6"/>
					<path class="wemos-cc" d="M19.8,16.2H19 M19,16.2l-0.4-0.4 M18.6,15.8v-0.8 M18.6,14.9l0.4-0.3 M19,14.6h0.8 M19.8,14.6l0.4,0.3 M20.2,14.9v0.4 M20.2,15.4h-1.6 M21.1,16.2v-2.4 M21.1,13.8l0.8,0.8 M22,14.6l0.8-0.8 M22.7,13.8v2.4 M24.1,16.2h0.8 M24.9,16.2l0.3-0.4 M25.2,15.8v-0.8 M25.2,14.9l-0.3-0.3 M24.9,14.6h-0.8 M24.1,14.6l-0.4,0.3 M23.7,14.9v0.8 M23.7,15.8l0.4,0.4 M26.2,16.2h1.2 M27.4,16.2l0.4-0.4 M27.8,15.8l-0.4-0.4 M27.4,15.4h-0.8 M26.6,15.4l-0.3-0.4 M26.2,14.9l0.3-0.3 M26.6,14.6h1.2 M28.8,16.2v-0.4 M28.8,15.8h0.4 M29.2,15.8v0.4 M29.2,16.2h-0.4 M31.7,14.6h-1.2 M30.5,14.6L30,14.9 M30,14.9v0.8 M30,15.8l0.4,0.4 M30.5,16.2h1.2 M34.2,14.6H33 M33,14.6l-0.3,0.3 M32.6,14.9v0.8 M32.6,15.8l0.3,0.4 M33,16.2h1.2 M17,13.1c1.9,2.6-0.4,3.9-0.9,2.4c-0.5,1.5-2.9,0.5-1.4-2.4"/>
				</g>
			</g>

			<g class="big-wemos-logo" transform="translate(12 61.5)">
				<path fill="#EEEEEE" d="M2.9,0h0.9C4.1,0.5,4.4,1.1,4,1.6c-1.5,2.9-2.4,6.2-1.9,9.5c0.2,1.3,0.7,2.7,1.8,3.5c1.2,0.7,2.8,0.2,3.9-0.6c0.6-0.4,0.6-1.2,0.9-1.8C9,11.5,10,11.4,10.4,12c0.4,0.7,0.5,1.7,1.2,2.2c1,0.9,2.6,1.2,3.7,0.3c1-0.9,1.3-2.3,1.3-3.6c0.1-2.4-0.5-4.8-1.7-6.9c-0.5-0.9-1.3-1.6-1.8-2.5c-0.2-0.7,0.6-1.3,1.2-1c1.2,0.6,1.9,1.9,2.6,3.1c1.3,2.7,2.1,5.8,1.6,8.8c-0.4,2.1-1.9,4.3-4.2,4.6h-1.5c-1.2-0.3-2.3-0.9-3.1-1.9C8.5,16,7.4,16.8,6,17H4.9c-1.1-0.1-2.2-0.6-2.9-1.4c-1.3-1.5-1.8-3.5-2-5.4V8.2c0.3-2.4,0.9-4.7,1.9-6.9C2.1,0.8,2.5,0.4,2.9,0z M34.5,3.7c1.7-1.7,3.8-2.9,6.1-3.2c3.3-0.5,6.7,0.8,9,3.2c-0.4,0.4-0.8,0.8-1.2,1.3c-1.7-1.8-4.2-2.9-6.7-2.7c-2.3,0.1-4.4,1.2-5.9,2.8C35.3,4.6,34.9,4.1,34.5,3.7z M36.6,5.9c1.6-1.8,4.1-2.7,6.5-2.4c1.7,0.2,3.3,1.1,4.5,2.3c-0.5,0.5-0.9,0.9-1.3,1.4c-1.2-1.3-3-2-4.8-1.8c-1.4,0.1-2.6,0.8-3.5,1.8C37.5,6.8,37,6.4,36.6,5.9z M38.7,8.2c0.9-0.8,2-1.5,3.3-1.5c1.3-0.1,2.5,0.6,3.5,1.4c-0.4,0.5-0.9,0.9-1.3,1.4c-1.1-1.1-3-1.2-4.1,0C39.6,9.1,39.2,8.6,38.7,8.2z M27.5,8c0.9,0,1.8,0,2.8,0c0.8,2,1.6,4.1,2.3,6.1c0.7-2.1,1.5-4.1,2.3-6.1c0.9,0,1.8,0,2.7,0c0,2.8,0,5.6,0,8.4c-0.6,0-1.3,0-1.9,0c0-2.3,0-4.6,0-6.9c-0.6,2.4-1.6,4.6-2.5,6.9c-0.5,0-1,0-1.5,0c-0.9-2.3-1.9-4.6-2.5-7c0,2.3,0,4.6,0.1,7c-0.6,0-1.2,0-1.7,0C27.5,13.6,27.5,10.8,27.5,8z M21.8,14c1.4-0.1,2.9,0,4.3,0c0-0.9,0-1.8-0.5-2.6c-0.8-1.2-2.5-1.3-3.7-0.8c-2,0.8-2.5,3.9-0.8,5.4c1.3,1,3.1,0.8,4.5,0.3c0-0.4,0-0.9,0-1.3C24.4,15.5,22.2,15.7,21.8,14z M23.4,11.5c0.7,0,1,0.8,1.1,1.3c-0.9,0-1.8,0-2.6,0C22.1,12.2,22.6,11.4,23.4,11.5z M47,10.8c1.1-0.7,2.5-0.5,3.7-0.3c0,0.5,0,0.9,0,1.4c-0.9-0.4-2-0.6-2.8,0.1c0.8,1.1,2.7,0.8,3.2,2.3v0.9c-0.8,1.7-3.2,1.6-4.7,1.2c-0.1-0.5-0.1-1-0.1-1.4c0.8,0.3,1.7,0.7,2.6,0.4c0.4-0.1,0.6-0.3,0.5-0.7c-0.8-0.6-2-0.6-2.7-1.4C46,12.5,46.2,11.3,47,10.8z M41,11c1.7-0.9,4,0.8,3.5,2.7c-0.4,1.9-3.2,2.5-4.3,0.9C39.1,13.5,39.6,11.6,41,11z"/>
			</g>

			<g class="bottom-right-dot" stroke-width="0" transform="translate(67.8, 76)">
				<circle cx="0.8" cy="0.8" r="1.6" fill="#EEEEEE"/>
			</g>

			<g class="push-button" transform="translate(15 22)">
				<g class="pads" fill="#CCCCCC">
					<circle class="tr" cx="37.5" cy="9.5" r="3.5"/>
					<circle class="br" cx="37.5" cy="25.5" r="3.5"/>
					<circle class="bl" cx="3.5" cy="25.5" r="3.5"/>
					<circle class="tl" cx="3.5" cy="9.5" r="3.5"/>
				</g>
				<path class="shell" fill="#222222" d="M36,35H5c-1.1,0-2-0.9-2-2V2c0-1.1,0.9-2,2-2h31c1.1,0,2,0.9,2,2v31C38,34.1,37.1,35,36,35z"/>
				<path class="shell-shadow" d="M35,33H6c-0.6,0-1-0.4-1-1V3c0-0.6,0.4-1,1-1h29c0.6,0,1,0.4,1,1v29C36,32.6,35.6,33,35,33z"/>
				<path class="face" fill="#7A7A7A" d="M33,32H8c-1.1,0-2-0.9-2-2V5c0-1.1,0.9-2,2-2h25c1.1,0,2,0.9,2,2v25C35,31.1,34.1,32,33,32z"/>
				<g class="button">
					<circle class="base-shadow" fill="#333333" cx="20.7" cy="17.7" r="10"/>
					<circle class="base" fill="#CCCC33" cx="20.5" cy="17.5" r="10"/>
					<path class="tip-shadow" fill="#999900" d="M15.8,12.8v10h10v-10H15.8z M20.8,20.8c-1.7,0-3-1.3-3-3s1.3-3,3-3s3,1.3,3,3S22.5,20.8,20.8,20.8z"/>
					<path class="tip" fill="#EEEE11" d="M15.4,12.4v10h10v-10H15.4z M20.4,20.4c-1.7,0-3-1.3-3-3s1.3-3,3-3s3,1.3,3,3S22.1,20.4,20.4,20.4z"/>
				</g>
				<g class="dots">
					<circle class="tl" cx="9.5" cy="6.5" r="2.5"/>
					<circle class="tr" cx="31.5" cy="6.5" r="2.5"/>
					<circle class="br" cx="31.5" cy="28.5" r="2.5"/>
					<circle class="bl" cx="9.5" cy="28.5" r="2.5"/>
				</g>
			</g>

			<g class="pads" fill="none" stroke="#9A916C" stroke-width="1.5">
				<g class="pads-left" transform="translate(0 0.322)">
					<circle id="connector0pin" class="pad-rst" cx="3.6" cy="3.6"  r="2.05"/>
					<circle id="connector1pin" class="pad-a0"  cx="3.6" cy="10.8" r="2.05"/>
					<circle id="connector2pin" class="pad-d0"  cx="3.6" cy="18"   r="2.05"/>
					<circle id="connector3pin" class="pad-d5"  cx="3.6" cy="25.2" r="2.05"/>
					<circle id="connector4pin" class="pad-d6"  cx="3.6" cy="32.4" r="2.05"/>
					<circle id="connector5pin" class="pad-d7"  cx="3.6" cy="39.6" r="2.05"/>
					<circle id="connector6pin" class="pad-d8"  cx="3.6" cy="46.8" r="2.05"/>
					<circle id="connector7pin" class="pad-3v3" cx="3.6" cy="54"   r="2.05"/>
				</g>
				<g class="pads-right" transform="translate(64.8 0.322)">
					<circle id="connector8pin" class="pad-5v"  cx="3.6" cy="54"   r="2.05"/>
					<circle id="connector9pin" class="pad-g"   cx="3.6" cy="46.8" r="2.05"/>
					<circle id="connector10pin" class="pad-d4" cx="3.6" cy="39.6" r="2.05"/>
					<circle id="connector11pin" class="pad-d3" cx="3.6" cy="32.4" r="2.05"/>
					<circle id="connector12pin" class="pad-d2" cx="3.6" cy="25.2" r="2.05"/>
					<circle id="connector13pin" class="pad-d1" cx="3.6" cy="18"   r="2.05"/>
					<circle id="connector14pin" class="pad-rx" cx="3.6" cy="10.8" r="2.05"/>
					<circle id="connector15pin" class="pad-tx" cx="3.6" cy="3.6"  r="2.05"/>
				</g>
			</g>
		</g>
	</g>
</g>

</svg>
