<?xml version="1.0" encoding="UTF-8"?>
<svg version="1.1" xmlns="http://www.w3.org/2000/svg" xmlns:xlink="http://www.w3.org/1999/xlink" x="0px" y="0px" viewBox="0 0 72.567 80.267" width="2.56cm" height="2.83cm" xml:space="preserve">
<g id="breadboard">
	<g id="icon">

		<g class="PCB">
			<path fill="#0D4C75" d="M0,57.8c0,0.2,0.1,0.4,0.3,0.5l5,2.3c0.2,0.1,0.3,0.3,0.3,0.5v17.2c0,1.1,0.9,2,2,2h63c1.1,0,2-0.9,2-2V1c0-0.6-0.4-1-1-1H1C0.4,0,0,0.4,0,1V57.8z M68.7,2.6c0.7,0,1.3,0.6,1.3,1.3s-0.6,1.3-1.3,1.3s-1.3-0.6-1.3-1.3C67.4,3.2,68,2.6,68.7,2.6z M68.7,9.8c0.7,0,1.3,0.6,1.3,1.3s-0.6,1.3-1.3,1.3s-1.3-0.6-1.3-1.3S68,9.8,68.7,9.8z M68.7,17c0.7,0,1.3,0.6,1.3,1.3s-0.6,1.3-1.3,1.3s-1.3-0.6-1.3-1.3S68,17,68.7,17z M68.7,24.2c0.7,0,1.3,0.6,1.3,1.3s-0.6,1.3-1.3,1.3s-1.3-0.6-1.3-1.3S68,24.2,68.7,24.2z M68.7,31.4c0.7,0,1.3,0.6,1.3,1.3c0,0.7-0.6,1.3-1.3,1.3s-1.3-0.6-1.3-1.3C67.4,32,68,31.4,68.7,31.4z M68.7,38.6c0.7,0,1.3,0.6,1.3,1.3s-0.6,1.3-1.3,1.3s-1.3-0.6-1.3-1.3C67.4,39.2,68,38.6,68.7,38.6z M68.7,45.8c0.7,0,1.3,0.6,1.3,1.3s-0.6,1.3-1.3,1.3s-1.3-0.6-1.3-1.3S68,45.8,68.7,45.8z M68.7,53c0.7,0,1.3,0.6,1.3,1.3s-0.6,1.3-1.3,1.3s-1.3-0.6-1.3-1.3S68,53,68.7,53z M3.9,2.6c0.7,0,1.3,0.6,1.3,1.3S4.6,5.2,3.9,5.2S2.6,4.6,2.6,3.9S3.2,2.6,3.9,2.6z M3.9,9.8c0.7,0,1.3,0.6,1.3,1.3s-0.6,1.3-1.3,1.3s-1.3-0.6-1.3-1.3S3.2,9.8,3.9,9.8z M3.9,17c0.7,0,1.3,0.6,1.3,1.3s-0.6,1.3-1.3,1.3S2.6,19,2.6,18.3S3.2,17,3.9,17z M3.9,24.2c0.7,0,1.3,0.6,1.3,1.3s-0.6,1.3-1.3,1.3s-1.3-0.6-1.3-1.3S3.2,24.2,3.9,24.2z M3.9,31.4c0.7,0,1.3,0.6,1.3,1.3c0,0.7-0.6,1.3-1.3,1.3s-1.3-0.6-1.3-1.3S3.2,31.4,3.9,31.4z M3.9,38.6c0.7,0,1.3,0.6,1.3,1.3s-0.6,1.3-1.3,1.3s-1.3-0.6-1.3-1.3S3.2,38.6,3.9,38.6z M3.9,45.8c0.7,0,1.3,0.6,1.3,1.3s-0.6,1.3-1.3,1.3s-1.3-0.6-1.3-1.3S3.2,45.8,3.9,45.8z M3.9,53c0.7,0,1.3,0.6,1.3,1.3s-0.6,1.3-1.3,1.3S2.6,55,2.6,54.3S3.2,53,3.9,53z"/>
		</g>

		<g transform="translate(0.2835 0)">

			<g class="oled-shield" fill="none" stroke="#EEEEEE" stroke-width="0.5" stroke-linecap="round">
				<g transform="translate(10, 65)">
					<path class="oled" d="M2.2,0.8H0.8 M0.8,0.8L0,1.5 M0,1.5v2.9 M0.8,5.2L0,4.5 M0.8,5.2h1.4 M2.2,5.2l0.8-0.8 M2.9,4.5V1.5 M2.9,1.5L2.2,0.8 M4.5,0.8v4.5 M4.5,5.2h2.9 M12,0.8H9.1 M9.1,0.8v4.5 M9.1,5.2H12 M9.1,2.9h1.4 M13.5,0.8v4.5 M13.5,5.2h2.2 M15.7,5.2l0.8-0.8 M16.5,4.5V1.5 M16.5,1.5l-0.8-0.8 M15.7,0.8h-2.2"/>
					<path class="shield" d="M25.7,1.5L25,0.8 M25,0.8h-1.4 M23.6,0.8l-0.8,0.8 M22.8,1.5v0.6 M22.8,2.2l0.8,0.8 M23.6,2.9H25 M25,2.9l0.8,0.8 M25.7,3.7v0.8 M25.7,4.5L25,5.2 M25,5.2h-1.4 M22.8,4.5l0.8,0.8 M27.3,0.8v4.5 M27.3,2.9L28,2.2 M28,2.2h1.5 M29.6,2.2l0.6,0.8 M30.2,2.9v2.3 M31.9,2.2h0.6 M32.5,2.2v3.1 M31.9,5.2h1.4 M32.5,0v0.8 M37.1,5.2h-1.5 M35.6,5.2l-0.8-0.8 M34.8,4.5V2.9 M34.8,2.9l0.8-0.8 M35.6,2.2h1.5 M37.1,2.2l0.6,0.8 M37.7,2.9v0.8 M37.7,3.7h-2.9 M39.3,0.8H40 M40,0.8v4.5 M39.3,5.2h1.5 M45.2,0.8v4.5 M45.2,5.2h-2.2 M43.1,5.2l-0.8-0.8 M42.3,4.5V2.9 M43.1,2.2l-0.8,0.8 M43.1,2.2h2.2"/>
				</g>
				<g transform="translate(44, 67)">
					<path class="wemos-cc" d="M7.175,10.619h-0.76 M6.415,10.619L6,10.205 M6,10.205v-0.83 M6,9.375l0.415-0.346 M6.415,9.029h0.76 M7.175,9.029L7.59,9.375 M7.59,9.375V9.79 M7.59,9.79H6 M8.519,10.619V8.2 M8.519,8.2l0.829,0.829 M9.348,9.029L10.109,8.2 M10.109,8.2v2.419 M11.453,10.619h0.829 M12.282,10.619l0.346-0.414 M12.628,10.205v-0.83 M12.628,9.375l-0.346-0.346 M12.282,9.029h-0.829 M11.453,9.029l-0.415,0.346 M11.038,9.375v0.83 M11.038,10.205l0.415,0.414 M13.626,10.619h1.175 M14.801,10.619l0.415-0.414 M15.216,10.205L14.801,9.79 M14.801,9.79h-0.829 M13.972,9.79l-0.346-0.415 M13.626,9.375l0.346-0.346 M13.972,9.029h1.244 M16.145,10.619v-0.414 M16.145,10.205h0.415 M16.56,10.205v0.414 M16.56,10.619h-0.415 M19.079,9.029h-1.244 M17.835,9.029L17.42,9.375 M17.42,9.375v0.83 M17.42,10.205l0.415,0.414 M17.835,10.619h1.244 M21.598,9.029h-1.244 M20.354,9.029l-0.346,0.346 M20.008,9.375v0.83 M20.008,10.205l0.346,0.414 M20.354,10.619h1.244 M4.15,7c2.5,3.5-0.5,5.2-1.2,3.2c-0.6,2-3.8,0.6-1.8-3.2"/>
				</g>
			</g>

			<g class="bottom-right-dot" stroke-width="0" transform="translate(67.8, 76)">
				<circle cx="0.8" cy="0.8" r="1.6" fill="#EEEEEE"/>
			</g>

			<g class="OLED-64x48">
				<g transform="translate(9 2)">
					<path class="tab-orange" fill="#FF9900" opacity="0.4" d="M2,41v11c0,0.6,0.4,1,1,1h7v6.7h34V53h7c0.6,0,1-0.4,1-1V41H2z"/>
					<path class="tab-black" fill="#111111" d="M48,43H6c-0.6,0-1,0.4-1,1v5c0,0.6,0.4,1,1,1h9.7v9.7h22.7V50H48c0.6,0,1-0.4,1-1v-5C49,43.4,48.6,43,48,43z"/>
					<rect class="border" x="2" y="1.9" width="50" height="39"/>
					<rect class="glass" fill="#000000" opacity="0.3" x="0" y="0" width="54" height="52"/>
					<rect class="screen" x="7" y="6.4" fill="#FFFFFF" width="40" height="30"/>
					<!-- <g class="pixels-w" fill="#000000">
						<polygon class="B" points="30.1,35.2 28.9,35.2 28.9,34.6 27.6,34.6 27.6,33.9 27.6,33.3 27,33.3 27,33.9 26.4,33.9 26.4,34.6 25.1,34.6 25.1,35.2 23.9,35.2 23.9,35.8 22.6,35.8 22.6,36.4 32,36.4 32,35.8 30.1,35.8"/>
						<polygon class="L" points="15.7,35.2 14.5,35.2 14.5,34.6 13.9,34.6 13.9,33.9 13.2,33.9 13.2,33.3 12.6,33.3 12.6,32.7 12,32.7 12,32.1 12,31.4 12,30.8 11.4,30.8 11.4,30.2 11.4,29.6 10.7,29.6 10.7,28.9 10.7,28.3 10.7,27.7 10.7,27.1 10.7,26.4 10.7,25.8 10.1,25.8 10.1,25.2 10.1,24.6 10.1,23.9 10.1,23.3 10.1,22.7 10.1,22.1 10.1,21.4 10.1,20.8 10.1,20.2 10.7,20.2 10.7,19.6 10.7,18.9 10.7,18.3 10.7,17.7 10.7,17.1 10.7,16.4 10.7,15.8 11.4,15.8 11.4,15.2 11.4,14.6 11.4,13.9 11.4,13.3 12,13.3 12,12.7 12,12.1 12,11.4 12.6,11.4 12.6,10.8 12.6,10.2 13.2,10.2 13.2,9.6 13.2,8.9 13.2,8.3 13.9,8.3 13.9,7.7 14.5,7.7 14.5,7.1 15.1,7.1 15.1,6.4 7,6.4 7,36.4 17.6,36.4 17.6,35.8 15.7,35.8"/>
						<polygon class="T" points="37.6,31.4 37.6,30.8 38.2,30.8 38.2,30.2 38.9,30.2 38.9,29.6 38.9,28.9 38.9,28.3 38.9,27.7 39.5,27.7 39.5,27.1 39.5,26.4 39.5,25.8 39.5,25.2 39.5,24.6 39.5,23.9 39.5,23.3 39.5,22.7 39.5,22.1 39.5,21.4 38.9,21.4 38.9,20.8 38.9,20.2 38.9,19.6 38.9,18.9 38.9,18.3 38.2,18.3 38.2,17.7 38.2,17.1 37.6,17.1 37.6,16.4 37.6,15.8 37.6,15.2 37,15.2 37,14.6 36.4,14.6 36.4,13.9 36.4,13.3 35.7,13.3 35.7,12.7 35.1,12.7 35.1,12.1 35.1,11.4 34.5,11.4 34.5,10.8 33.9,10.8 33.9,10.2 33.2,10.2 33.2,9.6 33.2,8.9 32.6,8.9 32.6,8.3 32.6,7.7 33.2,7.7 33.2,7.1 34.5,7.1 34.5,6.4 17,6.4 17,7.1 17.6,7.1 17.6,7.7 18.2,7.7 18.2,8.3 18.2,8.9 17.6,8.9 17.6,9.6 17.6,10.2 17.6,10.8 17,10.8 17,11.4 16.4,11.4 16.4,12.1 16.4,12.7 15.7,12.7 15.7,13.3 15.7,13.9 15.7,14.6 15.7,15.2 15.1,15.2 15.1,15.8 15.1,16.4 14.5,16.4 14.5,17.1 14.5,17.7 14.5,18.3 14.5,18.9 14.5,19.6 14.5,20.2 14.5,20.8 13.9,20.8 13.9,21.4 13.9,22.1 13.9,22.7 13.9,23.3 13.9,23.9 13.9,24.6 13.9,25.2 14.5,25.2 14.5,25.8 14.5,26.4 14.5,27.1 14.5,27.7 14.5,28.3 15.1,28.3 15.1,28.9 15.1,29.6 15.7,29.6 15.7,30.2 15.7,30.8 16.4,30.8 16.4,31.4 17,31.4 17,32.1 18.2,32.1 18.2,32.7 21.4,32.7 21.4,32.1 23.2,32.1 23.2,31.4 23.9,31.4 23.9,30.8 24.5,30.8 24.5,30.2 25.1,30.2 25.1,29.6 25.1,28.9 25.1,28.3 25.7,28.3 25.7,27.7 25.7,27.1 28.9,27.1 28.9,27.7 29.5,27.7 29.5,28.3 29.5,28.9 29.5,29.6 30.1,29.6 30.1,30.2 30.1,30.8 30.7,30.8 30.7,31.4 31.4,31.4 31.4,32.1 32.6,32.1 32.6,32.7 36.4,32.7 36.4,32.1 37.6,32.1"/>
						<polygon class="R" points="35.7,6.4 35.7,7.1 36.4,7.1 36.4,7.7 37,7.7 37,8.3 37.6,8.3 37.6,8.9 37.6,9.6 38.9,9.6 38.9,10.2 38.9,10.8 39.5,10.8 39.5,11.4 39.5,12.1 40.1,12.1 40.1,12.7 40.1,13.3 40.7,13.3 40.7,13.9 40.7,14.6 41.4,14.6 41.4,15.2 41.4,15.8 41.4,16.4 42,16.4 42,17.1 42,17.7 42,18.3 42.6,18.3 42.6,18.9 42.6,19.6 42.6,20.2 42.6,20.8 42.6,21.4 43.2,21.4 43.2,22.1 43.2,22.7 43.2,23.3 43.2,23.9 43.2,24.6 43.2,25.2 43.2,25.8 43.2,26.4 43.2,27.1 43.2,27.7 43.2,28.3 42.6,28.3 42.6,28.9 42.6,29.6 42.6,30.2 42.6,30.8 42,30.8 42,31.4 42,32.1 41.4,32.1 41.4,32.7 41.4,33.3 40.7,33.3 40.7,33.9 40.1,33.9 40.1,34.6 39.5,34.6 39.5,35.2 38.9,35.2 38.9,35.8 37,35.8 37,36.4 47,36.4 47,6.4"/>
					</g> -->
					<g class="pixels-words" fill="#000000">
						<path d="M13.242,7.645h1.249v4.372h-1.249v-0.625h-0.625v-0.625h-0.625v0.625h-0.625v0.625h-1.249V7.645h1.249v2.499h0.625V9.519h0.625v0.625h0.625V7.645z M15.741,11.393h-0.625V9.519h0.625V8.895h2.499v0.625h0.625v0.625v0.625h-2.499v0.625h2.499v0.625h-3.123V11.393z M16.366,9.519v0.625h1.249V9.519H16.366z M23.237,9.519h-0.625v0.625h-0.625V9.519h-0.625V8.895h-1.249v3.123h1.249v-1.249h0.625v0.625h0.625v-0.625h0.625v1.249h1.249V8.895h-1.249V9.519z M25.735,11.393h-0.625V9.519h0.625V8.895h2.499v0.625h0.625v1.874h-0.625v0.625h-2.499V11.393z M26.36,11.393h1.249V9.519H26.36V11.393z M30.732,9.519h-0.625v0.625h0.625v0.625h1.874v0.625h-2.499v0.625h3.123v-0.625h0.625v-0.625h-0.625v-0.625h-1.874V9.519h2.499V8.895h-3.123V9.519z"/>
						<path d="M13.242,13.267h-2.499v0.625h-0.625v3.123h0.625v0.625h2.499v-0.625h0.625v-3.123h-0.625V13.267z M12.618,17.015h-1.249v-3.123h1.249V17.015z M16.366,17.64h-1.249v-4.372h1.249v3.748h2.499v0.625H16.366z M21.363,13.267h2.499v0.625h-2.499v1.249h1.249v0.625h-1.249v1.249h2.499v0.625h-2.499h-1.249v-4.372H21.363z M27.609,17.64v-0.625h0.625V16.39h0.625v-1.874h-0.625v-0.625h-0.625v-0.625H26.36h-1.249v4.372h1.249H27.609z M26.36,13.892h0.625v0.625h0.625v1.874h-0.625v0.625H26.36V13.892z"/>
						<path d="M13.242,19.513h0.625v0.625h-1.249v-0.625h-1.249v1.249h1.874v0.625h0.625v1.249h-0.625v0.625h-2.499v-0.625h-0.625v-0.625h1.249v0.625h1.249v-1.249h-1.874v-0.625h-0.625v-1.249h0.625v-0.625h2.499V19.513z M16.366,20.763h1.249v2.499h1.249v-2.499H18.24v-0.625h-1.874v-1.249h-1.249v4.372h1.249V20.763z M22.612,18.889h-1.249v0.625h1.249V18.889z M21.363,23.261h1.249v-3.123h-1.249V23.261z M25.735,22.637h-0.625v-1.874h0.625v-0.625h2.499v0.625h0.625v1.249h-1.249H26.36v0.625h2.499v0.625h-3.123V22.637z M26.36,20.763v0.625h1.249v-0.625H26.36z M30.732,22.637v0.625h2.499v-0.625h-0.625v-3.123v-0.625h-1.874v0.625h0.625v3.123H30.732z M37.603,18.889h1.249v4.372h-1.249h-1.874v-0.625h-0.625v-1.874h0.625v-0.625h1.874V18.889z M37.603,20.763h-1.249v1.874h1.249V20.763z"/>
						<path d="M13.242,25.135h0.625v0.625h-1.249v-0.625h-1.249v1.249h1.874v0.625h0.625v1.249h-0.625v0.625h-2.499v-0.625h-0.625v-0.625h1.249v0.625h1.249v-1.249h-1.874v-0.625h-0.625v-1.249h0.625v-0.625h2.499V25.135z M15.741,28.883h2.499v-0.625h0.625v-1.249H18.24v-0.625h-1.874v-1.249h1.249v0.625h1.249v-0.625H18.24v-0.625h-2.499v0.625h-0.625v1.249h0.625v0.625h1.874v1.249h-1.249v-0.625h-1.249v0.625h0.625V28.883z M23.237,25.76h0.625v1.874h-0.625v0.625h-0.625v0.625h-1.249h-1.249v-4.372h1.249h1.249v0.625h0.625V25.76z M22.612,25.76h-0.625v-0.625h-0.625v3.123h0.625v-0.625h0.625V25.76z M28.858,28.258h-1.249v-3.748H26.36v1.249h-0.625v0.625h0.625v1.874h-1.249v0.625h3.748V28.258z M33.231,24.511h-2.499v0.625h-0.625v0.625h1.249v-0.625h1.249v1.249h-1.249v0.625h1.249v1.249h-1.249v-0.625h-1.249v0.625h0.625v0.625h2.499v-0.625h0.625v-1.249h-0.625v-0.625h0.625v-1.249h-0.625V24.511z M38.228,25.135h0.625v3.123h-0.625v0.625h-2.499v-0.625h-0.625v-3.123h0.625v-0.625h2.499V25.135z M37.603,25.135h-1.249v1.249h0.625v0.625h-0.625v1.249h1.249v-1.874h-0.625V25.76h0.625V25.135z M42.601,25.76v-0.625h-1.249v1.249h1.874v0.625h0.625v1.249h-0.625v0.625h-2.499v-0.625h-0.625v-3.123h0.625v-0.625h2.499v0.625h0.625v0.625H42.601z M41.351,27.009v1.249h1.249v-1.249H41.351z"/>
						<path d="M33.231,30.132h-2.499v0.625h-0.625v1.249h0.625v0.625h-0.625v1.249h0.625v0.625h2.499V33.88h0.625v-1.249h-0.625v-0.625h0.625v-1.249h-0.625V30.132z M32.606,33.88h-1.249v-1.249h1.249V33.88z M32.606,32.006h-1.249v-1.249h1.249V32.006z M28.858,32.631h0.625v0.625h-0.625v1.249h-1.249v-1.249h-2.499v-0.625v-0.625h1.249v0.625h1.249v-0.625H26.36v-0.625h0.625v-0.625h0.625v-0.625h1.249v0.625v0.625v0.625V32.631z M22.612,30.757h1.249v0.625h-0.625v0.625h-0.625v1.249h0.625v0.625h0.625v0.625h-1.249V33.88h-1.249v0.625h-1.249V33.88h0.625v-0.625h0.625v-1.249h-0.625v-0.625h-0.625v-0.625h1.249v0.625h1.249V30.757z M13.242,30.132h-2.499v0.625h-0.625v3.123h0.625v0.625h2.499V33.88h0.625v-1.249h-0.625v-0.625h-1.874v-1.249h1.249v0.625h1.249v-0.625h-0.625V30.132z M12.618,32.631v1.249h-1.249v-1.249H12.618z M18.864,32.631h0.625v0.625h-0.625v1.249h-1.249v-1.249h-2.499v-0.625v-0.625h1.249v0.625h1.249v-0.625h-1.249v-0.625h0.625v-0.625h0.625v-0.625h1.249v0.625v0.625v0.625V32.631z"/>
					</g>
				</g>
			</g>

			<g class="pads" fill="none" stroke="#9A916C" stroke-width="1.5">
				<g class="pads-left" transform="translate(0 0.322)">
					<circle id="connector0pin" class="pad-rst" cx="3.6" cy="3.6"  r="2.05"/>
					<circle id="connector1pin" class="pad-a0"  cx="3.6" cy="10.8" r="2.05"/>
					<circle id="connector2pin" class="pad-d0"  cx="3.6" cy="18"   r="2.05"/>
					<circle id="connector3pin" class="pad-d5"  cx="3.6" cy="25.2" r="2.05"/>
					<circle id="connector4pin" class="pad-d6"  cx="3.6" cy="32.4" r="2.05"/>
					<circle id="connector5pin" class="pad-d7"  cx="3.6" cy="39.6" r="2.05"/>
					<circle id="connector6pin" class="pad-d8"  cx="3.6" cy="46.8" r="2.05"/>
					<circle id="connector7pin" class="pad-3v3" cx="3.6" cy="54"   r="2.05"/>
				</g>
				<g class="pads-right" transform="translate(64.8 0.322)">
					<circle id="connector8pin" class="pad-5v"  cx="3.6" cy="54"   r="2.05"/>
					<circle id="connector9pin" class="pad-g"   cx="3.6" cy="46.8" r="2.05"/>
					<circle id="connector10pin" class="pad-d4" cx="3.6" cy="39.6" r="2.05"/>
					<circle id="connector11pin" class="pad-d3" cx="3.6" cy="32.4" r="2.05"/>
					<circle id="connector12pin" class="pad-d2" cx="3.6" cy="25.2" r="2.05"/>
					<circle id="connector13pin" class="pad-d1" cx="3.6" cy="18"   r="2.05"/>
					<circle id="connector14pin" class="pad-rx" cx="3.6" cy="10.8" r="2.05"/>
					<circle id="connector15pin" class="pad-tx" cx="3.6" cy="3.6"  r="2.05"/>
				</g>
			</g>
		</g>
	</g>
</g>

</svg>
