<?xml version="1.0" encoding="UTF-8"?>
<svg version="1.1" xmlns="http://www.w3.org/2000/svg" xmlns:xlink="http://www.w3.org/1999/xlink" x="0px" y="0px" viewBox="0 0 72.567 80.267" width="2.56cm" height="2.83cm" xml:space="preserve">
<g id="breadboard">
	<g id="icon">

		<g class="PCB">
			<path fill="#0D4C75" d="M0,57.8c0,0.2,0.1,0.4,0.3,0.5l5,2.3c0.2,0.1,0.3,0.3,0.3,0.5v17.2c0,1.1,0.9,2,2,2h63c1.1,0,2-0.9,2-2V1c0-0.6-0.4-1-1-1H1C0.4,0,0,0.4,0,1V57.8z M68.7,2.6c0.7,0,1.3,0.6,1.3,1.3s-0.6,1.3-1.3,1.3s-1.3-0.6-1.3-1.3C67.4,3.2,68,2.6,68.7,2.6z M68.7,9.8c0.7,0,1.3,0.6,1.3,1.3s-0.6,1.3-1.3,1.3s-1.3-0.6-1.3-1.3S68,9.8,68.7,9.8z M68.7,17c0.7,0,1.3,0.6,1.3,1.3s-0.6,1.3-1.3,1.3s-1.3-0.6-1.3-1.3S68,17,68.7,17z M68.7,24.2c0.7,0,1.3,0.6,1.3,1.3s-0.6,1.3-1.3,1.3s-1.3-0.6-1.3-1.3S68,24.2,68.7,24.2z M68.7,31.4c0.7,0,1.3,0.6,1.3,1.3c0,0.7-0.6,1.3-1.3,1.3s-1.3-0.6-1.3-1.3C67.4,32,68,31.4,68.7,31.4z M68.7,38.6c0.7,0,1.3,0.6,1.3,1.3s-0.6,1.3-1.3,1.3s-1.3-0.6-1.3-1.3C67.4,39.2,68,38.6,68.7,38.6z M68.7,45.8c0.7,0,1.3,0.6,1.3,1.3s-0.6,1.3-1.3,1.3s-1.3-0.6-1.3-1.3S68,45.8,68.7,45.8z M68.7,53c0.7,0,1.3,0.6,1.3,1.3s-0.6,1.3-1.3,1.3s-1.3-0.6-1.3-1.3S68,53,68.7,53z M3.9,2.6c0.7,0,1.3,0.6,1.3,1.3S4.6,5.2,3.9,5.2S2.6,4.6,2.6,3.9S3.2,2.6,3.9,2.6z M3.9,9.8c0.7,0,1.3,0.6,1.3,1.3s-0.6,1.3-1.3,1.3s-1.3-0.6-1.3-1.3S3.2,9.8,3.9,9.8z M3.9,17c0.7,0,1.3,0.6,1.3,1.3s-0.6,1.3-1.3,1.3S2.6,19,2.6,18.3S3.2,17,3.9,17z M3.9,24.2c0.7,0,1.3,0.6,1.3,1.3s-0.6,1.3-1.3,1.3s-1.3-0.6-1.3-1.3S3.2,24.2,3.9,24.2z M3.9,31.4c0.7,0,1.3,0.6,1.3,1.3c0,0.7-0.6,1.3-1.3,1.3s-1.3-0.6-1.3-1.3S3.2,31.4,3.9,31.4z M3.9,38.6c0.7,0,1.3,0.6,1.3,1.3s-0.6,1.3-1.3,1.3s-1.3-0.6-1.3-1.3S3.2,38.6,3.9,38.6z M3.9,45.8c0.7,0,1.3,0.6,1.3,1.3s-0.6,1.3-1.3,1.3s-1.3-0.6-1.3-1.3S3.2,45.8,3.9,45.8z M3.9,53c0.7,0,1.3,0.6,1.3,1.3s-0.6,1.3-1.3,1.3S2.6,55,2.6,54.3S3.2,53,3.9,53z"/>
		</g>

		<g transform="translate(0.2835 0)">

			<g class="used-pin-star" fill="#EEEEEE" stroke="#EEEEEE" stroke-width="0.4" stroke-linecap="round">
				<g class="D2" transform="translate(56.8 24.4)">
					<path d="M0,2l2-2 M0,0l2,2"/>
					<g transform="rotate(45 0.7 0.7)">
						<rect x="0.3" y="0" width="1.4" height="1.4"/>
					</g>
				</g>
			</g>

			<g class="labels" fill="none" stroke="#EEEEEE" stroke-width="0.4" stroke-linecap="round" stroke-linejoin="round" stroke-miterlimit="10">
				<g class="left-labels" transform="translate(8.5 0.3)">
					<g class="RST">
						<path class="top90" d="M2.2,6.541H0 M0,6.541l0-1.165 M0,5.376l0.324-0.324 M0.324,5.053H1.1 M1.1,5.053l0.388,0.324 M1.488,5.376v1.165 M1.488,5.765L2.2,5.053 M0.324,2.724L0,3.112 M0,3.112l0,0.776 M0,3.888l0.324,0.388 M0.324,4.276h0.388 M0.712,4.276L1.1,3.888 M1.1,3.888V3.112 M1.1,3.112l0.388-0.388 M1.488,2.724h0.324 M1.812,2.724L2.2,3.112 M2.2,3.112v0.776 M2.2,3.888L1.812,4.276 M2.2,1.235H0 M0,1.947l0-1.488"/>
					</g>
					<g class="A0" transform="translate(0 7.2)">
						<path class="left" d="M0,4.6V3.112 M0,3.112L0.776,2.4 M0.776,2.4l0.776,0.712 M1.553,3.112V4.6 M0,3.5h1.553 M2.329,4.212V2.724 M2.329,2.724L2.718,2.4 M2.718,2.4h0.712 M3.429,2.4l0.388,0.324 M3.818,2.724v1.488 M3.818,4.212L3.429,4.6 M3.429,4.6H2.718 M2.718,4.6L2.329,4.212 M2.329,4.212l1.488-1.488"/>
					</g>
					<g class="D0" transform="translate(0 14.4)">
						<path class="left" d="M0,2.4v2.2 M0,4.6h1.165 M1.165,4.6l0.388-0.388 M1.553,4.212V2.724 M1.553,2.724L1.165,2.4 M1.165,2.4H0 M2.329,4.212V2.724 M2.329,2.724L2.718,2.4 M2.718,2.4h0.712 M3.429,2.4l0.388,0.324 M3.818,2.724v1.488 M3.818,4.212L3.429,4.6 M3.429,4.6H2.718 M2.718,4.6L2.329,4.212 M2.329,4.212l1.488-1.488"/>
					</g>
					<g class="D5" transform="translate(0 21.6)">
						<path class="left" d="M0,2.4v2.2 M0,4.6h1.165 M1.165,4.6l0.388-0.388 M1.553,4.212V2.724 M1.553,2.724L1.165,2.4 M1.165,2.4H0 M3.818,2.4H2.329 M2.329,2.4v1.1 M2.329,3.5l0.712-0.388 M3.041,3.112h0.388 M3.429,3.112L3.818,3.5 M3.818,3.5v0.712 M3.818,4.212L3.429,4.6 M3.429,4.6H2.653 M2.653,4.6L2.329,4.212"/>
					</g>
					<g class="D6" transform="translate(0 28.8)">
						<path class="left" d="M0,2.4v2.2 M0,4.6h1.165 M1.165,4.6l0.388-0.388 M1.553,4.212V2.724 M1.553,2.724L1.165,2.4 M1.165,2.4H0 M3.818,2.4L3.041,2.724 M3.041,2.724L2.329,3.5 M2.329,3.5v0.712 M2.653,4.6L2.329,4.212 M2.653,4.6h0.776 M3.429,4.6l0.388-0.388 M3.818,4.212V3.888 M3.818,3.888L3.429,3.5 M3.429,3.5h-1.1"/>
					</g>
					<g class="D7" transform="translate(0 36)">
						<path class="left" d="M0,2.4v2.2 M0,4.6h1.165 M1.165,4.6l0.388-0.388 M1.553,4.212V2.724 M1.553,2.724L1.165,2.4 M1.165,2.4H0 M2.329,2.4h1.488 M3.818,2.4v0.324 M3.818,2.724L2.329,4.212 M2.329,4.212V4.6"/>
					</g>
					<g class="D8" transform="translate(0 43.2)">
						<path class="left" d="M0,2.4v2.2 M0,4.6h1.165 M1.165,4.6l0.324-0.388 M1.488,4.212V2.724 M1.488,2.724L1.165,2.4 M1.165,2.4H0 M2.329,2.724L2.653,2.4 M2.653,2.4h0.776 M3.429,2.4l0.388,0.324 M3.818,2.724v0.388 M3.818,3.112L3.429,3.5 M3.429,3.5l0.388,0.388 M3.818,3.888v0.324 M3.818,4.212L3.429,4.6 M3.429,4.6H2.653 M2.653,4.6L2.329,4.212 M2.329,4.212V3.888 M2.329,3.888L2.653,3.5 M2.653,3.5L2.329,3.112 M2.329,3.112V2.724 M2.653,3.5h0.776"/>
					</g>
					<g class="3V3" transform="translate(0 50.4)">
						<path class="top90" d="M0.324,6.541L0,6.153 M0,6.153l0-0.776 M0,5.376l0.324-0.324 M0.324,5.053h0.388 M0.712,5.053L1.1,5.376 M1.1,5.376v0.388 M1.1,5.376l0.388-0.324 M1.488,5.053h0.324 M1.812,5.053L2.2,5.376 M2.2,5.376v0.776 M2.2,6.153L1.812,6.541 M0,4.212h1.488 M1.488,4.212L2.2,3.5 M2.2,3.5L1.488,2.724 M1.488,2.724H0 M0.324,1.947L0,1.559 M0,1.559l0-0.712 M0,0.847l0.324-0.388 M0.324,0.459h0.388 M0.712,0.459L1.1,0.847 M1.1,0.847v0.324 M1.1,0.847l0.388-0.388 M1.488,0.459h0.324 M1.812,0.459L2.2,0.847 M2.2,0.847v0.712 M1.812,1.947L2.2,1.559"/>
					</g>
				</g>
				<g class="right-labels" transform="translate(56.7 0.3)">
					<g class="TX">
						<path class="right" d="M3.959,4.6V2.4 M3.247,2.4h1.488 M7,4.6L5.512,2.4 M7,2.4L5.512,4.6"/>
					</g>
					<g class="RX" transform="translate(0 7.2)">
						<path class="right" d="M3.247,4.6V2.4 M3.247,2.4h1.1 M4.347,2.4l0.388,0.324 M4.735,2.724V3.5 M4.735,3.5L4.347,3.888 M4.347,3.888h-1.1 M3.959,3.888L4.735,4.6 M7,4.6L5.512,2.4 M7,2.4L5.512,4.6"/>
					</g>
					<g class="D1" transform="translate(0 14.4)">
						<path class="right" d="M3.247,2.4v2.2 M3.247,4.6h1.1 M4.347,4.6l0.388-0.388 M4.735,4.212V2.724 M4.735,2.724L4.347,2.4 M4.347,2.4h-1.1 M5.512,3.112L6.224,2.4 M6.224,2.4v2.2 M5.512,4.6H7"/>
					</g>
					<g class="D2" transform="translate(0 21.6)">
						<path class="right" d="M3.247,2.4v2.2 M3.247,4.6h1.1 M4.347,4.6l0.388-0.388 M4.735,4.212V2.724 M4.735,2.724L4.347,2.4 M4.347,2.4h-1.1 M7,4.6H5.512 M5.512,4.6L7,3.112 M7,3.112V2.724 M7,2.724L6.612,2.4 M6.612,2.4H5.9 M5.9,2.4L5.512,2.724"/>
					</g>
					<g class="D3" transform="translate(0 28.8)">
						<path class="right" d="M3.182,2.4v2.2 M3.182,4.6h1.165 M4.347,4.6l0.388-0.388 M4.735,4.212V2.724 M4.735,2.724L4.347,2.4 M4.347,2.4H3.182 M5.512,2.724L5.9,2.4 M5.9,2.4h0.712 M6.612,2.4L7,2.724 M7,2.724v0.388 M7,3.112L6.612,3.5 M6.612,3.5H6.224 M6.612,3.5L7,3.888 M7,3.888v0.324 M7,4.212L6.612,4.6 M6.612,4.6H5.9 M5.9,4.6L5.512,4.212"/>
					</g>
					<g class="D4" transform="translate(0 36)">
						<path class="right" d="M3.182,2.4v2.2 M3.182,4.6h1.165 M4.347,4.6l0.388-0.388 M4.735,4.212V2.724 M4.735,2.724L4.347,2.4 M4.347,2.4H3.182 M6.612,4.6V2.4 M6.612,2.4l-1.1,1.1 M5.512,3.5H7"/>
					</g>
					<g class="GND" transform="translate(0 43.2)">
						<path class="bot90" d="M4.8,5.441l0.324-0.388 M4.8,5.441v0.712 M5.124,6.541L4.8,6.153 M5.124,6.541h1.488 M7,6.153L6.612,6.541 M7,6.153V5.441 M7,5.441L6.612,5.053 M6.612,5.053H5.9 M5.9,5.053v0.712 M7,4.276H4.8 M4.8,4.276L7,2.724 M7,2.724H4.8 M4.8,1.947H7 M7,1.947v-1.1 M7,0.847L6.612,0.459 M6.612,0.459H5.124 M5.124,0.459L4.8,0.847 M4.8,0.847v1.1"/>
					</g>
					<g class="5V" transform="translate(0 50.4)">
						<path class="right" d="M4.735,2.4H3.182 M3.182,2.4v1.1 M3.182,3.5l0.776-0.388 M3.959,3.112h0.388 M4.347,3.112L4.735,3.5 M4.735,3.5v0.712 M4.735,4.212L4.347,4.6 M4.347,4.6H3.571 M3.571,4.6L3.182,4.212 M5.512,2.4v1.488 M5.512,3.888L6.224,4.6 M6.224,4.6L7,3.888 M7,3.888V2.4"/>
					</g>
				</g>
			</g>

			<g class="ws2812b-shield" transform="translate(17 5)">
				<g fill="#FFFFFF" stroke="#FFFFFF" stroke-width="0.5" stroke-linecap="round" stroke-linejoin="round" stroke-miterlimit="10">
					<path class="ws2812b" d="M0,0v3.3 M0,3.3l1.2-1.1 M1.2,2.2l1.1,1.1 M2.2,3.3V0 M5.6,0.5L5.1,0 M5.1,0H3.9 M3.4,0.5L3.9,0 M3.4,0.5v0.6 M3.4,1.1l0.6,0.6 M3.9,1.6h1.2 M5.6,2.2L5.1,1.6 M5.6,2.2v0.6 M5.6,2.8L5.1,3.3 M5.1,3.3H3.9 M3.9,3.3L3.4,2.8 M9,3.3H6.8 M6.8,3.3L9,1.1 M9,1.1V0.5 M8.4,0L9,0.5 M8.4,0H7.3 M6.8,0.5L7.3,0 M10.2,0.5L10.7,0 M10.7,0h1.1 M12.4,0.5L11.8,0 M12.4,0.5v0.6 M12.4,1.1l-0.6,0.6 M11.8,1.6l0.6,0.6 M12.4,2.2v0.6 M12.4,2.8l-0.6,0.5 M11.8,3.3h-1.1 M10.7,3.3l-0.6-0.5 M10.2,2.8V2.2 M10.2,2.2l0.6-0.6 M10.7,1.6l-0.6-0.6 M10.2,1.1V0.5 M10.7,1.6h1.1 M13.5,1.1L14.7,0 M14.7,0v3.3 M13.5,3.3h2.2 M19.2,3.3H17 M17,3.3l2.2-2.2 M19.2,1.1V0.5 M19.2,0.5L18.6,0 M18.6,0h-1.2 M17.5,0L17,0.5 M20.3,3.3V0 M20.3,0H22 M22,0l0.6,0.5 M22.6,0.5v0.6 M22.6,1.1L22,1.6 M22,1.6l0.6,0.6 M22.6,2.2v0.6 M22.6,2.8L22,3.3 M22,3.3h-1.6 M20.3,1.6H22 M27.2,3.3V0 M27.2,0h1.6 M28.8,0l0.6,0.5 M29.4,0.5v1.2 M29.4,1.6l-0.6,0.6 M28.8,2.2h-1.6 M29.4,3.3l-1.2-1.1 M32.7,0.5L32.1,0 M32.1,0h-1.1 M31.1,0l-0.6,0.5 M30.5,0.5v2.3 M30.5,2.8l0.6,0.5 M31.1,3.3h1.1 M32.1,3.3l0.6-0.5 M32.7,2.8V1.6 M32.7,1.6h-1.2 M33.9,3.3V0 M33.9,0h1.7 M35.6,0l0.5,0.5 M36.1,0.5v0.6 M36.1,1.1l-0.5,0.6 M35.6,1.6l0.5,0.6 M36.1,2.2v0.6 M36.1,2.8l-0.5,0.5 M35.6,3.3h-1.7 M33.9,1.6h1.7"/>
					<path class="shield" d="M20.2,7l-0.6-0.6 M19.7,6.4h-1.1 M18.6,6.4L18,7 M18,7v0.6 M18,7.5L18.6,8 M18.6,8h1.1 M19.7,8l0.6,0.6 M20.2,8.6v0.6 M20.2,9.2l-0.6,0.6 M19.7,9.8h-1.1 M18,9.2l0.6,0.6 M21.4,9.8V6.4 M21.4,8h2.2 M23.6,6.4v3.4 M24.9,9.8h1.1 M25.3,9.8V6.4 M24.9,6.4h1.1 M29.3,6.4h-2.2 M27.1,6.4v3.4 M27.1,9.8h2.2 M27.1,8h1.2 M30.4,6.4v3.4 M30.4,9.8h2.3 M33.9,6.4v3.4 M33.9,9.8h1.6 M35.5,9.8l0.6-0.6 M36.1,9.2V7 M35.5,6.4L36.1,7 M35.5,6.4h-1.6"/>
					<path class="wemos-cc" d="M16.5,13.6v2.8 M16.5,16.4l1-1 M17.5,15.5l0.9,1 M18.4,16.4v-2.8 M21.3,13.6h-1.9 M19.4,13.6v2.8 M19.4,16.4h1.9 M19.4,15h0.9 M22.3,16.4v-2.8 M23.2,14.5l-0.9-0.9 M23.2,14.5l1-0.9 M24.2,13.6v2.8 M26.6,13.6h-1 M25.1,14.1l0.5-0.5 M25.1,14.1v1.9 M25.6,16.4l-0.5-0.5 M25.6,16.4h1 M26.6,16.4l0.4-0.5 M27,15.9v-1.9 M27,14.1l-0.4-0.5 M29.9,14.1l-0.5-0.5 M29.4,13.6h-1 M28.5,13.6l-0.4,0.5 M28.1,14.1v0.4 M28.1,14.5l0.4,0.5 M28.5,15h1 M29.4,15l0.5,0.5 M29.9,15.5v0.5 M29.9,15.9l-0.5,0.5 M29.4,16.4h-1 M28.5,16.4l-0.4-0.5 M30.9,16.4v-0.5 M30.9,15.9h0.5 M31.4,15.9v0.5 M31.4,16.4h-0.5 M34.2,14.1l-0.5-0.5 M33.7,13.6h-1 M32.8,13.6l-0.4,0.5 M32.4,14.1v1.9 M32.4,15.9l0.4,0.5 M32.8,16.4h1 M33.7,16.4l0.5-0.5 M37.1,14.1l-0.5-0.5 M36.6,13.6h-0.9 M35.7,13.6l-0.5,0.5 M35.2,14.1v1.9 M35.2,15.9l0.5,0.5 M35.7,16.4h0.9 M37.1,15.9l-0.5,0.5"/>
					<line fill="none" stroke-width="0.6" x1="2.1" y1="11.4" x2="38.1" y2="11.4"/>
				</g>
			</g>

			<g class="big-wemos-logo" transform="translate(12 61.5)">
				<path class="wemos" fill="#FFFFFF" d="M2.9,0h0.9C4.1,0.5,4.4,1.1,4,1.6c-1.5,2.9-2.4,6.2-1.9,9.5c0.2,1.3,0.7,2.7,1.8,3.5c1.2,0.7,2.8,0.2,3.9-0.6c0.6-0.4,0.6-1.2,0.9-1.8C9,11.5,10,11.4,10.4,12c0.4,0.7,0.5,1.7,1.2,2.2c1,0.9,2.6,1.2,3.7,0.3c1-0.9,1.3-2.3,1.3-3.6c0.1-2.4-0.5-4.8-1.7-6.9c-0.5-0.9-1.3-1.6-1.8-2.5c-0.2-0.7,0.6-1.3,1.2-1c1.2,0.6,1.9,1.9,2.6,3.1c1.3,2.7,2.1,5.8,1.6,8.8c-0.4,2.1-1.9,4.3-4.2,4.6h-1.5c-1.2-0.3-2.3-0.9-3.1-1.9C8.5,16,7.4,16.8,6,17H4.9c-1.1-0.1-2.2-0.6-2.9-1.4c-1.3-1.5-1.8-3.5-2-5.4V8.2c0.3-2.4,0.9-4.7,1.9-6.9C2.1,0.8,2.5,0.4,2.9,0z M34.5,3.7c1.7-1.7,3.8-2.9,6.1-3.2c3.3-0.5,6.7,0.8,9,3.2c-0.4,0.4-0.8,0.8-1.2,1.3c-1.7-1.8-4.2-2.9-6.7-2.7c-2.3,0.1-4.4,1.2-5.9,2.8C35.3,4.6,34.9,4.1,34.5,3.7z M36.6,5.9c1.6-1.8,4.1-2.7,6.5-2.4c1.7,0.2,3.3,1.1,4.5,2.3c-0.5,0.5-0.9,0.9-1.3,1.4c-1.2-1.3-3-2-4.8-1.8c-1.4,0.1-2.6,0.8-3.5,1.8C37.5,6.8,37,6.4,36.6,5.9z M38.7,8.2c0.9-0.8,2-1.5,3.3-1.5c1.3-0.1,2.5,0.6,3.5,1.4c-0.4,0.5-0.9,0.9-1.3,1.4c-1.1-1.1-3-1.2-4.1,0C39.6,9.1,39.2,8.6,38.7,8.2z M27.5,8c0.9,0,1.8,0,2.8,0c0.8,2,1.6,4.1,2.3,6.1c0.7-2.1,1.5-4.1,2.3-6.1c0.9,0,1.8,0,2.7,0c0,2.8,0,5.6,0,8.4c-0.6,0-1.3,0-1.9,0c0-2.3,0-4.6,0-6.9c-0.6,2.4-1.6,4.6-2.5,6.9c-0.5,0-1,0-1.5,0c-0.9-2.3-1.9-4.6-2.5-7c0,2.3,0,4.6,0.1,7c-0.6,0-1.2,0-1.7,0C27.5,13.6,27.5,10.8,27.5,8z M21.8,14c1.4-0.1,2.9,0,4.3,0c0-0.9,0-1.8-0.5-2.6c-0.8-1.2-2.5-1.3-3.7-0.8c-2,0.8-2.5,3.9-0.8,5.4c1.3,1,3.1,0.8,4.5,0.3c0-0.4,0-0.9,0-1.3C24.4,15.5,22.2,15.7,21.8,14z M23.4,11.5c0.7,0,1,0.8,1.1,1.3c-0.9,0-1.8,0-2.6,0C22.1,12.2,22.6,11.4,23.4,11.5z M47,10.8c1.1-0.7,2.5-0.5,3.7-0.3c0,0.5,0,0.9,0,1.4c-0.9-0.4-2-0.6-2.8,0.1c0.8,1.1,2.7,0.8,3.2,2.3v0.9c-0.8,1.7-3.2,1.6-4.7,1.2c-0.1-0.5-0.1-1-0.1-1.4c0.8,0.3,1.7,0.7,2.6,0.4c0.4-0.1,0.6-0.3,0.5-0.7c-0.8-0.6-2-0.6-2.7-1.4C46,12.5,46.2,11.3,47,10.8z M41,11c1.7-0.9,4,0.8,3.5,2.7c-0.4,1.9-3.2,2.5-4.3,0.9C39.1,13.5,39.6,11.6,41,11z"/>
			</g>

			<g class="bottom-right-dot" stroke-width="0" transform="translate(67.8, 76)">
				<circle cx="0.8" cy="0.8" r="1.6" fill="#EEEEEE"/>
			</g>

			<g class="WS2812B" transform="translate(29.5, 32) rotate(180 7.086 7.6465)">
				<g fill="#B3B3B3">
					<rect x="10.2" y="13.8" width="2.8" height="1.5"/>
					<rect x="1.1" y="13.8" width="2.8" height="1.5"/>
					<rect x="10.2" width="2.8" height="1.5"/>
					<rect x="1.1" width="2.8" height="1.5"/>
				</g>
				<rect y="0.6" fill="#E6E6E6" width="14.2" height="14.2"/>
				<circle fill="#CCCCCC" cx="7.1" cy="7.8" r="5.6"/>
				<circle fill="#E6E6E6" cx="7.1" cy="7.8" r="4.8"/>
				<g>
					<g fill="#999999">
						<path d="M5.2,10.8v1.4c0.6,0.3,1.2,0.4,1.9,0.4c0.7,0,1.3-0.1,1.9-0.4v-1.4H5.2z"/>
						<path d="M10,4.8c-0.1,0-0.6,0-1,0c-0.4,0-0.4,0.4-0.4,0.4v1.4l0.6,0.6h2.6C11.7,6,11.1,5,10.3,4.3C10.2,4.5,10.1,4.8,10,4.8z"/>
						<path d="M5.6,6.6V5.2c0,0,0-0.4-0.4-0.4c-0.4,0-0.9,0-1,0c-0.1,0-0.3-0.3-0.3-0.5C3.1,5,2.5,6,2.4,7.2H5L5.6,6.6z"/>
						<path d="M9.5,8.8l0,1.1c0,0,0.1,0,0.3,0c0.4,0,0.4,0.5,0.4,0.5v1c0.9-0.8,1.5-1.9,1.6-3.2c-0.4,0-1.4,0-1.8,0C9.5,8.2,9.5,8.8,9.5,8.8z"/>
						<path d="M3.9,11.4v-1c0,0,0-0.5,0.4-0.5c0.3,0,0.3,0,0.3,0l0-1.1c0,0,0-0.6-0.5-0.6c-0.4,0-1.4,0-1.8,0C2.4,9.5,3,10.6,3.9,11.4z"/>
						<path d="M6.4,7.6c0,0,0,0.3-0.5,0.3c-0.4,0-0.4,0-0.4,0v1.7c0,0-0.1,0.4,0.3,0.4c0.2,0,0.5,0,0.9,0c0,0,0.4,0,0.8,0c0.3,0,0.7,0,0.9,0c0.4,0,0.3-0.4,0.3-0.4V7.9c0,0,0,0-0.4,0c-0.4,0-0.5-0.3-0.5-0.3V4.1l1.1-0.7C8.3,3.2,7.7,3,7.1,3C6.5,3,5.9,3.2,5.4,3.4l1.1,0.7L6.4,7.6L6.4,7.6z"/>
					</g>
					<rect x="6.1" y="8.1" fill="#4F423C" width="2.2" height="3.1"/>
					<rect x="6.8" y="6.3" fill="#4D4D4D" width="0.7" height="0.6"/>
					<rect x="4.4" y="5.2" fill="#4D4D4D" width="1" height="1"/>
					<g>
						<g>
							<path fill="#E6C47E" d="M4.1,9.1c0.1,0,1.9,0.8,2.6,1.3l-0.1,0.1C5.9,10,4,9.2,4.1,9.1L4.1,9.1z"/>
							<circle fill="#E6C47E" cx="4" cy="9.2" r="0.1"/>
							<circle fill="#E6C47E" cx="6.6" cy="10.5" r="0.1"/>
						</g>
						<g>
							<path fill="#E6C47E" d="M3.2,6.9C3.3,7,6,8.3,6.3,8.5L6.3,8.6C6,8.4,3.2,7,3.2,6.9L3.2,6.9z"/>
							<circle fill="#E6C47E" cx="3.2" cy="6.9" r="0.1"/>
							<circle fill="#E6C47E" cx="6.3" cy="8.6" r="0.1"/>
						</g>
						<g>
							<path fill="#E6C47E" d="M4.7,6c0.1,0.1,2,2.4,2.1,2.7l-0.1,0C6.6,8.6,5.2,6.8,4.7,6L4.7,6z"/>
							<circle fill="#E6C47E" cx="4.7" cy="6.1" r="0.1"/>
							<circle fill="#E6C47E" cx="6.8" cy="8.8" r="0.1"/>
						</g>
						<g>
							<path fill="#E6C47E" d="M6.9,4L6.9,4C7,4.1,5.8,5,5.1,5.6L5.1,5.5C5.7,5,6.8,4.1,6.9,4z"/>
							<circle fill="#E6C47E" cx="5.1" cy="5.5" r="0.1"/>
							<circle fill="#E6C47E" cx="6.9" cy="4" r="0.1"/>
						</g>
						<g>
							<path fill="#E6C47E" d="M7.3,4.3C8,4.9,9.3,5.9,9.4,6L9.3,6.1C9.2,6,7.4,4.4,7.3,4.3L7.3,4.3z"/>
							<circle fill="#E6C47E" cx="7.3" cy="4.3" r="0.1"/>
							<circle fill="#E6C47E" cx="9.4" cy="6.1" r="0.1"/>
						</g>
						<g>
							<path fill="#E6C47E" d="M9.7,6.4L9.7,6.4c0,0.1-1.7,2.1-2.3,2.4l0-0.1C8,8.5,9.7,6.4,9.7,6.4z"/>
							<circle fill="#E6C47E" cx="9.7" cy="6.4" r="0.1"/>
							<circle fill="#E6C47E" cx="7.4" cy="8.8" r="0.1"/>
						</g>
						<g>
							<path fill="#E6C47E" d="M7.2,6.6C7.3,7,7.1,8.7,7.1,8.8L7,8.8c0,0,0.2-1.7,0.1-2.1L7.2,6.6z"/>
							<circle fill="#E6C47E" cx="7.1" cy="8.8" r="0.1"/>
							<circle fill="#E6C47E" cx="7.1" cy="6.6" r="0.1"/>
						</g>
						<g>
							<path fill="#E6C47E" d="M9.9,8.7L9.9,8.7C10,8.7,9.8,9.3,9,9.4C8.2,9.6,7.5,9.9,7.5,9.9l0-0.1c0,0,0.7-0.3,1.5-0.5C9.8,9.2,9.9,8.7,9.9,8.7z"/>
							<circle fill="#E6C47E" cx="7.5" cy="9.8" r="0.1"/>
							<circle fill="#E6C47E" cx="10" cy="8.7" r="0.1"/>
						</g>
						<g>
							<path fill="#E6C47E" d="M10.6,9.9L10.6,9.9c0,0.1-1.6,0.3-2.8,0.1l0-0.1C9,10.2,10.6,9.9,10.6,9.9z"/>
							<circle fill="#E6C47E" cx="10.6" cy="10" r="0.1"/>
							<circle fill="#E6C47E" cx="7.9" cy="10" r="0.1"/>
						</g>
						<g>
							<path fill="#E6C47E" d="M7.4,10.5c0,0.8,0.7,1.4,0.7,1.4L7.9,12C7.9,11.9,7.3,11.3,7.4,10.5L7.4,10.5z"/>
							<circle fill="#E6C47E" cx="8" cy="11.9" r="0.1"/>
							<circle fill="#E6C47E" cx="7.3" cy="10.5" r="0.1"/>
						</g>
					</g>
				</g>
			</g>

			<g class="cap-0603" transform="translate(33.4, 52) rotate(-90, 1.334, 1.334)">
				<rect class="pad" x="0" y="0" fill="#AAAAAA" width="2.668" height="2.668"/>
				<rect class="pad" x="0" y="3.867" fill="#AAAAAA" width="2.668" height="2.668"/>
				<rect class="cap light" x="0.2" y="1" fill="#BB9977" width="2.268" height="4.535"/>
				<rect class="tip" x="0.2" y="1" fill="#CCCCCC" width="2.268" height="1"/>
				<rect class="tip" x="0.2" y="4.535" fill="#CCCCCC" width="2.268" height="1"/>
				<rect class="shadow left" opacity="0.5" x="0.2" y="1" fill="#000000" width="0.1" height="4.535"/>
				<rect class="shadow bottom" opacity="0.5" x="0.2" y="5.535" fill="#000000" width="2.268" height="0.1"/>
				<rect class="highlight right" opacity="0.5" x="2.3668" y="1" fill="#FFFFFF" width="0.1" height="4.535"/>
				<rect class="highlight top" opacity="0.5" x="0.2" y="1" fill="#FFFFFF" width="2.268" height="0.1"/>
			</g>

			<g class="pads" fill="none" stroke="#9A916C" stroke-width="1.5">
				<g class="pads-left" transform="translate(0 0.322)">
					<circle id="connector0pin" class="pad-rst" cx="3.6" cy="3.6"  r="2.05"/>
					<circle id="connector1pin" class="pad-a0"  cx="3.6" cy="10.8" r="2.05"/>
					<circle id="connector2pin" class="pad-d0"  cx="3.6" cy="18"   r="2.05"/>
					<circle id="connector3pin" class="pad-d5"  cx="3.6" cy="25.2" r="2.05"/>
					<circle id="connector4pin" class="pad-d6"  cx="3.6" cy="32.4" r="2.05"/>
					<circle id="connector5pin" class="pad-d7"  cx="3.6" cy="39.6" r="2.05"/>
					<circle id="connector6pin" class="pad-d8"  cx="3.6" cy="46.8" r="2.05"/>
					<circle id="connector7pin" class="pad-3v3" cx="3.6" cy="54"   r="2.05"/>
				</g>
				<g class="pads-right" transform="translate(64.8 0.322)">
					<circle id="connector8pin" class="pad-5v"  cx="3.6" cy="54"   r="2.05"/>
					<circle id="connector9pin" class="pad-g"   cx="3.6" cy="46.8" r="2.05"/>
					<circle id="connector10pin" class="pad-d4" cx="3.6" cy="39.6" r="2.05"/>
					<circle id="connector11pin" class="pad-d3" cx="3.6" cy="32.4" r="2.05"/>
					<circle id="connector12pin" class="pad-d2" cx="3.6" cy="25.2" r="2.05"/>
					<circle id="connector13pin" class="pad-d1" cx="3.6" cy="18"   r="2.05"/>
					<circle id="connector14pin" class="pad-rx" cx="3.6" cy="10.8" r="2.05"/>
					<circle id="connector15pin" class="pad-tx" cx="3.6" cy="3.6"  r="2.05"/>
				</g>
			</g>
		</g>
	</g>
</g>

</svg>
